<svg xmlns="http://www.w3.org/2000/svg" xmlns:xlink="http://www.w3.org/1999/xlink" xmlns:inkscape="http://www.inkscape.org/namespaces/inkscape" version="1.1" width="458.00" height="132.40" viewBox="410.80 293.80 458.00 132.40">
<defs>
<clipPath id="clip_1">
<path transform="matrix(1,0,0,-1,0,720)" d="M427.748 310.642H852.25198V409.358H427.748Z"/>
</clipPath>
<path id="font_2_9" d="M.10798645 0H.5469971V.055999757H.17098999V.7001953H.10798645V0Z"/>
<path id="font_2_20" d="M.2749939-.0126953129C.41799928-.0126953129 .5209961 .09526062 .5209961 .2431488 .5209961 .3920288 .41799928 .5 .2749939 .5 .1329956 .5 .02999878 .3920288 .02999878 .2431488 .02999878 .09526062 .1329956-.0126953129 .2749939-.0126953129M.2749939 .03929138C.16799927 .03929138 .09399414 .12322998 .09399414 .2431488 .09399414 .36405946 .16799927 .44799806 .2749939 .44799806 .3829956 .44799806 .45799256 .36405946 .45799256 .2431488 .45799256 .12322998 .3829956 .03929138 .2749939 .03929138Z"/>
<path id="font_2_15" d="M.25698854-.22000122C.3999939-.22000122 .47799684-.14596558 .47799684 .018325806V.4873047H.41799928V.39630128C.3869934 .45999146 .32598878 .5 .24899292 .5 .116989139 .5 .02999878 .40203858 .02999878 .25816346 .02999878 .11428833 .11399841 .016326905 .24899292 .016326905 .32798768 .016326905 .38598634 .059326173 .41799928 .120285037V.018325806C.41799928-.105895999 .37298585-.16699219 .25498963-.16699219 .15299988-.16699219 .101989749-.11991882 .101989749-.042770387H.038986207C.038986207-.15698242 .1309967-.22000122 .25698854-.22000122M.2579956 .06933594C.1579895 .06933594 .09298706 .14326477 .09298706 .25816346 .09298706 .37306214 .1579895 .44599916 .2579956 .44599916 .35299684 .44599916 .41799928 .37005616 .41799928 .25816346 .41799928 .1462555 .35099793 .06933594 .2579956 .06933594Z"/>
<path id="font_2_1" d=""/>
<path id="font_2_8" d="M.5609894 .7001953V.3821869H.17098999V.7001953H.10798645V0H.17098999V.3251953H.5609894V0H.6239929V.7001953H.5609894Z"/>
<path id="font_2_22" d="M.08799744 0H.14698792V.24398804C.14698792 .34599305 .20098877 .44099427 .2899933 .44099427 .3039856 .44099427 .31599427 .43998719 .32798768 .43798829V.4970703C.31799317 .49899293 .30799867 .5 .29899598 .5 .21099854 .5 .16899109 .43899537 .14698792 .37599183V.4873047H.08799744V0Z"/>
<path id="font_2_16" d="M.083999637 .5751953H.1519928V.68418887H.083999637V.5751953M.08799744 0H.14698792V.4873047H.08799744V0Z"/>
<path id="font_2_28" d="M.10398865 .049987794 .4229889 .44329835V.4873047H.02999878V.43829347H.34399415L.024993897 .04399109V0H.43598939V.049987794H.10398865Z"/>
<path id="font_2_19" d="M.08799744 0H.14698792V.24299622C.14698792 .3659973 .20599365 .44799806 .30999757 .44799806 .40699769 .44799806 .44299317 .37799073 .44299317 .2559967V0H.5019989V.2559967C.5019989 .41099549 .44299317 .5 .31698609 .5 .24598694 .5 .17799378 .46398927 .14698792 .3899994V.4873047H.08799744V0Z"/>
<path id="font_2_24" d="M.23699951-.0126953129C.2669983-.0126953129 .2999878-.0066986086 .32798768 .0032958985V.060302736C.3019867 .049301149 .27198792 .042297365 .24299622 .042297365 .17999268 .042297365 .15098572 .08630371 .15098572 .1362915V.43730165H.30299378L.30699159 .4873047H.15098572V.6252899H.09799194V.5352783C.09799194 .49726869 .08898926 .48828126 .052993776 .48828126H.0019989014V.43730165H.09199524V.1382904C.09199524 .03630066 .15499878-.0126953129 .23699951-.0126953129Z"/>
<path id="font_2_12" d="M.20698548-.0126953129C.28399659-.0126953129 .35499574 .030303956 .3939972 .100250247 .39698792 .02130127 .42900086-.0126953129 .47299195-.0126953129 .49198915-.0126953129 .5089874-.0077056887 .5209961-.0017089844V.04928589C.5079956 .044296266 .49798585 .042297365 .4889984 .042297365 .46398927 .042297365 .44999696 .060287477 .44999696 .103256229V.3140869C.44999696 .4090271 .40098573 .5 .2599945 .5 .14099121 .5 .07398987 .43499757 .056991579 .33407594H.117996219C.13198853 .40802003 .1789856 .44799806 .26098634 .44799806 .34399415 .44799806 .3889923 .40402223 .3889923 .3370819 .3889923 .28611756 .36299134 .28411866 .2749939 .27412416 .147995 .26113893 .052993776 .23414612 .052993776 .12722779 .052993776 .03829956 .117996219-.0126953129 .20698548-.0126953129M.21899414 .03929138C.15899658 .03929138 .115997318 .072265628 .115997318 .12922669 .115997318 .21116638 .20498657 .22216797 .2829895 .23014832 .33898927 .2371521 .36499024 .239151 .3909912 .2551422V.19517517C.3909912 .10624695 .3039856 .03929138 .21899414 .03929138Z"/>
<path id="font_2_17" d="M.08299255 0H.14199829V.73046877H.08299255V0Z"/>
</defs>
<g>
<g inkscape:groupmode="layer" inkscape:label="Capa 1">
<path transform="matrix(1,0,0,-1,0,720)" d="M0 0H1280V720H0Z" fill="#ffffff"/>
<g clip-path="url(#clip_1)">
<path transform="matrix(1,0,0,-1,555.0256,347.9543)" d="M0 0 10.038-3.021C9.368-5.837 8.308-8.189 6.862-10.077 5.414-11.967 3.617-13.392 1.47-14.355-.678-15.318-3.411-15.802-6.731-15.805-10.758-15.81-14.049-15.229-16.603-14.061-19.157-12.894-21.363-10.838-23.22-7.893-25.077-4.948-26.008-1.177-26.014 3.42-26.021 9.55-24.396 14.263-21.138 17.559-17.882 20.855-13.271 22.506-7.305 22.513-2.638 22.519 1.033 21.579 3.706 19.695 6.379 17.81 8.366 14.914 9.668 11.006L-.44 8.745C-.795 9.874-1.167 10.699-1.555 11.221-2.196 12.096-2.981 12.77-3.908 13.241-4.835 13.711-5.872 13.946-7.018 13.945-9.613 13.942-11.6 12.896-12.979 10.807-14.023 9.258-14.542 6.825-14.538 3.51-14.533-.598-13.907-3.412-12.658-4.933-11.409-6.455-9.656-7.215-7.398-7.212-5.207-7.21-3.553-6.593-2.433-5.361-1.314-4.13-.503-2.343 0 0" fill="#013540"/>
<path transform="matrix(1,0,0,-1,566.5227,350.849)" d="M0 0 10.893 .695C11.131-1.074 11.613-2.422 12.339-3.348 13.52-4.846 15.206-5.594 17.396-5.591 19.031-5.59 20.29-5.205 21.174-4.437 22.058-3.669 22.499-2.78 22.498-1.769 22.497-.808 22.075 .051 21.231 .808 20.388 1.565 18.432 2.279 15.365 2.95 10.342 4.073 6.759 5.569 4.617 7.437 2.457 9.305 1.377 11.688 1.373 14.586 1.371 16.49 1.921 18.29 3.023 19.985 4.124 21.679 5.783 23.012 7.998 23.984 10.212 24.955 13.249 25.444 17.108 25.448 21.843 25.453 25.454 24.577 27.942 22.819 30.43 21.061 31.911 18.261 32.388 14.42L21.596 13.775C21.307 15.443 20.703 16.656 19.784 17.413 18.865 18.17 17.596 18.548 15.979 18.546 14.647 18.545 13.645 18.261 12.972 17.696 12.298 17.13 11.962 16.444 11.963 15.635 11.964 15.045 12.242 14.514 12.799 14.043 13.338 13.555 14.62 13.101 16.643 12.683 21.649 11.61 25.235 10.523 27.402 9.422 29.568 8.32 31.145 6.953 32.133 5.32 33.121 3.686 33.616 1.858 33.618-.164 33.621-2.54 32.966-4.731 31.654-6.738 30.342-8.745 28.507-10.268 26.149-11.307 23.79-12.346 20.817-12.867 17.228-12.871 10.925-12.878 6.56-11.67 4.13-9.246 1.701-6.823 .324-3.741 0 0" fill="#013540"/>
<path transform="matrix(1,0,0,-1,602.6426,326.0111)" d="M0 0 15.059 .017 20.892-22.523 26.632 .031 41.681 .048 41.724-37.008 32.346-37.019 32.314-8.759 25.12-37.027 16.632-37.037 9.388-8.786 9.42-37.045 .042-37.056Z" fill="#013540"/>
<path transform="matrix(1,0,0,-1,648.9776,325.9581)" d="M0 0 11.475 .013 11.518-37.042 .042-37.056Z" fill="#013540"/>
<path transform="matrix(1,0,0,-1,675.5929,344.5313)" d="M0 0C.004-3.741 .702-6.428 2.095-8.061 3.487-9.694 5.379-10.509 7.772-10.506 10.232-10.503 12.135-9.701 13.481-8.098 14.828-6.496 15.499-3.622 15.494 .523 15.49 4.011 14.783 6.559 13.374 8.167 11.965 9.774 10.056 10.577 7.646 10.574 5.338 10.572 3.485 9.752 2.089 8.116 .692 6.48-.004 3.775 0 0M-11.451 .038C-11.458 6.087-9.778 10.799-6.411 14.173-3.045 17.547 1.646 19.238 7.662 19.244 13.829 19.251 18.583 17.601 21.924 14.294 25.264 10.986 26.937 6.35 26.944 .385 26.949-3.946 26.224-7.499 24.77-10.272 23.316-13.046 21.212-15.205 18.458-16.75 15.705-18.295 12.272-19.07 8.161-19.074 3.982-19.079 .522-18.418-2.218-17.089-4.958-15.762-7.18-13.658-8.885-10.778-10.591-7.898-11.446-4.293-11.451 .038" fill="#013540"/>
<path transform="matrix(1,0,0,-1,748.2396,362.9)" d="M0 0-30.888-.035C-30.538 3.015-29.467 5.885-27.675 8.575-25.884 11.265-22.521 14.441-17.588 18.103-14.574 20.348-12.647 22.052-11.806 23.216-10.964 24.379-10.544 25.483-10.546 26.528-10.547 27.657-10.965 28.621-11.8 29.421-12.635 30.22-13.684 30.62-14.948 30.618-16.262 30.617-17.336 30.202-18.169 29.376-19.003 28.549-19.561 27.091-19.845 25.001L-30.159 25.824C-29.758 28.722-29.019 30.985-27.943 32.613-26.866 34.24-25.347 35.489-23.385 36.359-21.423 37.229-18.706 37.666-15.234 37.67-11.612 37.674-8.793 37.264-6.778 36.441-4.764 35.618-3.178 34.351-2.022 32.642-.865 30.933-.286 29.017-.283 26.894-.281 24.636-.94 22.478-2.261 20.421-3.581 18.363-5.984 16.103-9.469 13.639-11.54 12.204-12.925 11.199-13.624 10.626-14.322 10.052-15.143 9.301-16.085 8.373L-.01 8.392Z" fill="#013540"/>
<path transform="matrix(1,0,0,-1,759.7222,344.2328)" d="M0 0C.005-4.718 .426-7.941 1.262-9.667 2.098-11.393 3.308-12.255 4.893-12.253 5.937-12.252 6.842-11.885 7.608-11.151 8.374-10.417 8.937-9.258 9.298-7.674 9.658-6.089 9.837-3.62 9.833-.267 9.827 4.653 9.406 7.96 8.57 9.653 7.734 11.345 6.482 12.191 4.814 12.189 3.112 12.187 1.883 11.322 1.126 9.594 .37 7.865-.005 4.667 0 0M-10.212 .014C-10.22 7.057-8.958 11.987-6.425 14.805-3.892 17.621-.03 19.033 5.16 19.039 7.654 19.042 9.701 18.737 11.303 18.124 12.905 17.51 14.211 16.711 15.224 15.727 16.236 14.742 17.033 13.707 17.616 12.62 18.199 11.534 18.668 10.267 19.023 8.818 19.717 6.055 20.066 3.174 20.069 .175 20.077-6.549 18.945-11.471 16.674-14.591 14.403-17.711 10.487-19.274 4.926-19.28 1.808-19.284-.712-18.79-2.634-17.798-4.556-16.806-6.133-15.35-7.365-13.43-8.26-12.067-8.958-10.201-9.457-7.834-9.957-5.467-10.209-2.851-10.212 .014" fill="#013540"/>
<path transform="matrix(1,0,0,-1,811.0833,362.8281)" d="M0 0-30.888-.035C-30.538 3.015-29.467 5.885-27.675 8.575-25.884 11.265-22.521 14.441-17.588 18.103-14.574 20.348-12.647 22.052-11.806 23.216-10.964 24.379-10.544 25.483-10.546 26.528-10.547 27.657-10.965 28.621-11.8 29.421-12.635 30.22-13.684 30.62-14.948 30.618-16.262 30.617-17.336 30.202-18.169 29.376-19.003 28.549-19.562 27.091-19.845 25.001L-30.159 25.824C-29.758 28.722-29.019 30.985-27.943 32.613-26.866 34.24-25.347 35.489-23.385 36.359-21.423 37.229-18.706 37.666-15.234 37.67-11.612 37.674-8.793 37.264-6.778 36.441-4.764 35.618-3.178 34.351-2.022 32.642-.865 30.933-.286 29.017-.284 26.894-.281 24.636-.94 22.478-2.261 20.421-3.581 18.363-5.984 16.103-9.469 13.639-11.54 12.204-12.925 11.199-13.624 10.626-14.322 10.052-15.143 9.301-16.085 8.373L-.01 8.392Z" fill="#013540"/>
<path transform="matrix(1,0,0,-1,823.2052,350.6055)" d="M0 0C.002-2.006 .509-3.576 1.522-4.712 2.534-5.849 3.773-6.416 5.239-6.414 6.588-6.413 7.716-5.898 8.625-4.869 9.534-3.84 9.987-2.306 9.984-.267 9.982 1.823 9.508 3.415 8.564 4.509 7.618 5.603 6.447 6.149 5.048 6.148 3.616 6.146 2.416 5.614 1.448 4.551 .48 3.489-.002 1.971 0 0M18.939 16.527 8.703 15.252C8.432 16.683 7.98 17.694 7.347 18.283 6.715 18.872 5.935 19.166 5.008 19.165 3.34 19.163 2.043 18.319 1.119 16.633 .446 15.419-.049 12.823-.364 8.846 .864 10.095 2.127 11.019 3.424 11.618 4.721 12.218 6.22 12.519 7.922 12.521 11.225 12.525 14.019 11.348 16.306 8.992 18.591 6.635 19.737 3.645 19.741 .023 19.744-2.421 19.169-4.654 18.017-6.678 16.865-8.701 15.266-10.232 13.22-11.271 11.174-12.31 8.609-12.831 5.525-12.834 1.818-12.838-1.157-12.21-3.4-10.949-5.643-9.688-7.435-7.672-8.778-4.901-10.121-2.131-10.795 1.538-10.8 6.105-10.808 12.794-9.406 17.695-6.596 20.808-3.785 23.92 .114 25.479 5.102 25.485 8.051 25.488 10.381 25.149 12.092 24.469 13.803 23.788 15.224 22.791 16.355 21.479 17.485 20.165 18.346 18.515 18.939 16.527" fill="#013540"/>
<path transform="matrix(1,0,0,-1,429.6385,320.3886)" d="M0 0-.057-.021V-26.044H-1.891V-45.989L1.681-45.986V.694C1.1 .429 .546 .199 0 0" fill="#b1f727"/>
<path transform="matrix(1,0,0,-1,435.5689,318.4221)" d="M0 0-.045-.025V-27.311H-1.878V-47.956L1.693-47.953V.974C1.154 .656 .593 .329 0 0" fill="#b1f727"/>
<path transform="matrix(1,0,0,-1,441.9536,315.7676)" d="M0 0C-.142-.071-.289-.148-.441-.23L-.487-.255V-29.268-29.266H-2.32V-50.61L1.252-50.607V.749C.797 .44 .384 .192 0 0" fill="#b1f727"/>
<path transform="matrix(1,0,0,-1,447.442,313.108)" d="M0 0-.033-.026V-31.243H-1.866V-53.27L1.706-53.267V1.3C1.137 .904 .555 .446 0 0" fill="#b1f727"/>
<path transform="matrix(1,0,0,-1,454.3304,310.7425)" d="M0 0C-.278 .091-.58 .12-.9 .088L-.978 .08V-17.705L-2.811-17.965V-55.635L.76-55.633V-.337C.514-.2 .261-.085 0 0" fill="#b1f727"/>
<path transform="matrix(1,0,0,-1,459.7999,315.327)" d="M0 0C-.088 .308-.18 .615-.299 .913L-.505 1.427V-12.286L-2.338-12.547V-51.051H1.233V-1.185C.652-1.044 .171-.6 0 0" fill="#b1f727"/>
<path transform="matrix(1,0,0,-1,465.2557,315.2627)" d="M0 0-.018-.024V-11.517L-1.851-11.776V-51.115H1.72V1.693C1.027 1.234 .416 .543 0 0" fill="#b1f727"/>
<path transform="matrix(1,0,0,-1,472.7862,314.8286)" d="M0 0C-.11 .121-.215 .242-.318 .362-.673 .773-1.007 1.161-1.476 1.425L-1.606 1.499V-12.803L-3.439-12.347V-51.549H.132V-.152C.074-.084 .029-.032 0 0" fill="#b1f727"/>
<path transform="matrix(1,0,0,-1,477.2622,317.4733)" d="M0 0-.139 .103V-11.621L-1.972-11.169V-48.905H1.599V-.927C1.088-.716 .552-.407 0 0" fill="#b1f727"/>
<path transform="matrix(1,0,0,-1,483.1408,318.642)" d="M0 0-.075-.011V-11.919L-1.908-11.467V-47.736H1.663V.396C1.205 .246 .646 .093 0 0" fill="#b1f727"/>
<path transform="matrix(1,0,0,-1,489.6967,317.3621)" d="M0 0C-.195 .007-.398-.008-.616-.046L-.688-.058V-14.666L-2.521-14.214V-49.016H1.05V-.192C.663-.076 .315-.011 0 0" fill="#b1f727"/>
<path transform="matrix(1,0,0,-1,495.0785,318.7056)" d="M0 0-.127 .065V-14.79L-1.96-14.337V-47.672H1.611V-.772C1.071-.548 .51-.261 0 0" fill="#b1f727"/>
<path transform="matrix(1,0,0,-1,500.8939,334.9643)" d="M0 0-1.833 .455V-31.413H1.738V14.25C1.138 14.484 .601 14.671 .112 14.812L0 14.845Z" fill="#b1f727"/>
<path transform="matrix(1,0,0,-1,506.9606,321.8274)" d="M0 0-.124 .057V-14.601L-1.957-14.149V-44.55H1.614V-.756C1.06-.494 .518-.238 0 0" fill="#b1f727"/>
<path transform="matrix(1,0,0,-1,534.6057,380.1298)" d="M0 0 1.726 .002-.809-4.419 1.796-8.907 .083-8.909-1.701-5.533-3.472-8.913-5.21-8.915-2.608-4.421-5.152-.006-3.433-.004-1.728-3.325Z" fill="#013540"/>
<path transform="matrix(1,0,0,-1,544.4612,380.118)" d="M0 0 .001-1.218-1.902-1.221-1.895-7.7 .009-7.697 .01-8.909-5.24-8.916-5.241-7.704-3.381-7.701-3.389-1.222-5.249-1.225-5.25-.007Z" fill="#013540"/>
<path transform="matrix(1,0,0,-1,547.3967,380.115)" d="M0 0 1.609 .002 3.311-6.164 3.459-6.696 3.61-6.158 5.311 .006 6.914 .008 4.183-8.904 2.751-8.906Z" fill="#013540"/>
<path transform="matrix(1,0,0,-1,571.7785,387.4325)" d="M0 0C-.162-.354-.376-.655-.642-.903-.909-1.156-1.229-1.353-1.598-1.489-1.967-1.627-2.376-1.695-2.824-1.696-3.191-1.696-3.529-1.646-3.837-1.547-4.146-1.447-4.42-1.307-4.66-1.123-4.894-.951-5.097-.744-5.27-.503-5.443-.26-5.59 .006-5.708 .296-5.827 .581-5.916 .892-5.976 1.226-6.035 1.561-6.065 1.909-6.065 2.272L-6.067 3.49C-6.067 3.837-6.04 4.171-5.982 4.493-5.926 4.815-5.841 5.119-5.727 5.405-5.604 5.724-5.447 6.012-5.253 6.271-5.06 6.531-4.837 6.752-4.584 6.936-4.344 7.104-4.077 7.234-3.786 7.328-3.494 7.423-3.175 7.47-2.828 7.47-2.359 7.471-1.94 7.401-1.571 7.264-1.202 7.125-.887 6.931-.624 6.678-.359 6.421-.15 6.11 .004 5.748 .156 5.386 .257 4.981 .302 4.537L-1.167 4.535C-1.191 4.8-1.242 5.04-1.318 5.254-1.394 5.468-1.496 5.65-1.627 5.802-1.763 5.952-1.928 6.066-2.124 6.146-2.319 6.226-2.554 6.266-2.827 6.265-3.019 6.265-3.191 6.238-3.345 6.185-3.497 6.132-3.633 6.056-3.751 5.958-3.913 5.839-4.049 5.686-4.157 5.496-4.266 5.306-4.354 5.095-4.422 4.861-4.476 4.657-4.515 4.44-4.542 4.21-4.567 3.979-4.58 3.744-4.58 3.503L-4.578 2.273C-4.578 1.976-4.562 1.696-4.525 1.435-4.491 1.174-4.437 .936-4.362 .72-4.306 .54-4.232 .377-4.146 .23-4.058 .084-3.952-.043-3.829-.148-3.702-.263-3.557-.35-3.392-.408-3.227-.467-3.038-.497-2.825-.497-2.572-.496-2.349-.459-2.152-.386-1.957-.312-1.789-.203-1.651-.061-1.518 .078-1.409 .252-1.327 .46-1.246 .668-1.193 .906-1.169 1.176L.306 1.178C.265 .745 .163 .353 0 0" fill="#013540"/>
<path transform="matrix(1,0,0,-1,579.6086,383.2781)" d="M0 0C-.023 .216-.062 .422-.114 .618-.176 .842-.257 1.047-.357 1.231-.457 1.417-.578 1.575-.722 1.706-.849 1.82-.993 1.91-1.156 1.975-1.319 2.039-1.506 2.072-1.714 2.072-1.913 2.072-2.093 2.039-2.252 1.977-2.411 1.913-2.55 1.826-2.668 1.716-2.81 1.582-2.93 1.421-3.028 1.235-3.126 1.049-3.2 .842-3.253 .614-3.303 .418-3.338 .211-3.359-.007-3.382-.226-3.394-.444-3.394-.665L-3.392-1.852C-3.392-2.068-3.381-2.282-3.36-2.494-3.339-2.707-3.305-2.91-3.256-3.106-3.202-3.326-3.129-3.531-3.037-3.722-2.945-3.911-2.835-4.071-2.704-4.2-2.576-4.323-2.431-4.42-2.266-4.491-2.101-4.562-1.909-4.598-1.693-4.598-1.485-4.598-1.297-4.562-1.127-4.493-.958-4.423-.812-4.329-.69-4.211-.548-4.076-.429-3.916-.333-3.73-.237-3.544-.162-3.339-.104-3.114-.056-2.919-.02-2.714 .002-2.5 .024-2.285 .037-2.068 .041-1.848L.039-.661C.035-.437 .022-.217 0 0M1.429-2.888C1.365-3.222 1.275-3.538 1.157-3.836 1.03-4.134 .874-4.408 .687-4.658 .499-4.91 .284-5.126 .039-5.305-.197-5.469-.46-5.598-.747-5.691-1.034-5.785-1.35-5.833-1.692-5.833-2.047-5.834-2.373-5.784-2.668-5.685-2.964-5.586-3.229-5.448-3.461-5.272-3.698-5.094-3.905-4.878-4.083-4.625-4.26-4.372-4.409-4.095-4.527-3.793-4.642-3.504-4.729-3.195-4.785-2.866-4.844-2.538-4.872-2.201-4.872-1.854L-4.874-.679C-4.874-.316-4.845 .034-4.783 .373-4.722 .712-4.631 1.032-4.509 1.335-4.391 1.624-4.246 1.891-4.072 2.134-3.898 2.376-3.695 2.587-3.458 2.768-3.229 2.943-2.97 3.079-2.678 3.176-2.387 3.271-2.065 3.319-1.715 3.32-1.359 3.32-1.033 3.272-.735 3.175-.437 3.076-.171 2.94 .066 2.766 .303 2.59 .51 2.384 .686 2.148 .86 1.912 1.008 1.652 1.127 1.371 1.257 1.069 1.356 .746 1.421 .401 1.486 .058 1.521-.3 1.521-.671L1.522-1.846C1.522-2.205 1.49-2.552 1.429-2.888" fill="#013540"/>
<path transform="matrix(1,0,0,-1,588.3957,388.9774)" d="M0 0-2.9 6.128V-.003L-4.387-.005-4.396 8.904-2.903 8.906-.021 2.803-.016 8.909 1.465 8.911 1.475 .002Z" fill="#013540"/>
<path transform="matrix(1,0,0,-1,598.6662,388.2957)" d="M0 0C-.174-.137-.372-.258-.592-.365-.869-.5-1.172-.604-1.498-.681-1.824-.757-2.173-.794-2.544-.795-2.887-.795-3.207-.751-3.505-.661-3.803-.572-4.071-.446-4.312-.283-4.553-.12-4.77 .078-4.959 .31-5.148 .542-5.308 .801-5.434 1.086-5.577 1.384-5.686 1.712-5.76 2.07-5.833 2.43-5.872 2.807-5.877 3.202L-5.879 4.341C-5.874 4.724-5.84 5.091-5.772 5.442-5.705 5.793-5.607 6.118-5.477 6.416-5.351 6.697-5.2 6.954-5.024 7.187-4.85 7.419-4.65 7.622-4.426 7.794-4.182 7.973-3.911 8.112-3.615 8.211-3.319 8.309-2.998 8.358-2.651 8.358-2.183 8.359-1.767 8.296-1.403 8.171-1.04 8.044-.73 7.862-.474 7.627-.212 7.387-.006 7.096 .146 6.755 .297 6.415 .394 6.033 .435 5.608L-1.009 5.606C-1.046 5.84-1.102 6.051-1.175 6.24-1.249 6.43-1.347 6.59-1.469 6.72-1.601 6.858-1.761 6.964-1.95 7.038-2.14 7.111-2.363 7.146-2.62 7.146-2.808 7.146-2.981 7.115-3.141 7.051-3.3 6.987-3.442 6.901-3.568 6.791-3.715 6.664-3.842 6.509-3.95 6.323-4.059 6.137-4.146 5.93-4.215 5.701-4.276 5.501-4.321 5.287-4.35 5.059-4.377 4.83-4.392 4.596-4.392 4.354L-4.39 3.204C-4.39 2.923-4.37 2.656-4.331 2.403-4.292 2.15-4.233 1.915-4.156 1.699-4.094 1.536-4.021 1.383-3.938 1.241-3.854 1.099-3.756 .972-3.642 .862-3.497 .719-3.331 .609-3.142 .531-2.952 .455-2.736 .414-2.496 .41-2.354 .41-2.209 .42-2.062 .438-1.915 .457-1.774 .486-1.64 .527-1.509 .568-1.389 .621-1.278 .685-1.168 .748-1.082 .822-1.017 .908L-1.012 2.688-2.628 2.687-2.629 3.83 .431 3.834 .447 .427C.324 .279 .176 .137 0 0" fill="#013540"/>
<path transform="matrix(1,0,0,-1,605.0246,384.3016)" d="M0 0C.261 .004 .496 .044 .707 .119 .917 .196 1.094 .305 1.241 .447 1.371 .57 1.474 .721 1.547 .9 1.619 1.081 1.656 1.285 1.656 1.514 1.656 1.771 1.615 1.996 1.536 2.188 1.456 2.382 1.339 2.544 1.184 2.675 1.04 2.797 .867 2.89 .663 2.952 .459 3.016 .23 3.049-.022 3.054L-1.381 3.052-1.377-.002ZM-1.376-1.201-1.372-4.658-2.841-4.66-2.851 4.249-.023 4.253C.437 4.248 .861 4.19 1.249 4.076 1.637 3.963 1.972 3.796 2.254 3.575 2.531 3.352 2.747 3.073 2.903 2.741 3.059 2.408 3.136 2.021 3.137 1.575 3.137 1.27 3.098 .992 3.019 .743 2.938 .494 2.828 .271 2.686 .07 2.543-.13 2.372-.306 2.172-.457 1.972-.607 1.751-.738 1.506-.85L3.413-4.573V-4.652L1.841-4.654 .129-1.199Z" fill="#013540"/>
<path transform="matrix(1,0,0,-1,612.7404,384.954)" d="M0 0 .003-2.783 4.305-2.778 4.306-3.99-1.471-3.997-1.48 4.912 4.265 4.919 4.266 3.701-.005 3.696-.002 1.187 3.682 1.191 3.684 .004Z" fill="#013540"/>
<path transform="matrix(1,0,0,-1,624.7268,386.0906)" d="M0 0C-.086 .159-.206 .302-.362 .428-.525 .546-.719 .653-.94 .749-1.163 .844-1.411 .931-1.684 1.008-2.104 1.125-2.492 1.271-2.845 1.443-3.197 1.617-3.498 1.812-3.748 2.027-3.997 2.247-4.191 2.497-4.332 2.776-4.474 3.055-4.544 3.37-4.545 3.721-4.545 4.101-4.464 4.441-4.302 4.747-4.139 5.051-3.918 5.311-3.642 5.527-3.364 5.74-3.041 5.902-2.672 6.016-2.303 6.127-1.914 6.184-1.507 6.185-1.074 6.185-.671 6.119-.298 5.986 .075 5.855 .4 5.67 .678 5.435 .956 5.194 1.176 4.907 1.337 4.575 1.499 4.242 1.579 3.876 1.58 3.472L.124 3.47C.104 3.694 .055 3.899-.021 4.085-.096 4.271-.201 4.43-.336 4.564-.476 4.694-.644 4.798-.842 4.873-1.039 4.948-1.267 4.985-1.523 4.985-1.748 4.985-1.955 4.955-2.145 4.896-2.334 4.836-2.499 4.754-2.638 4.647-2.775 4.537-2.883 4.404-2.961 4.249-3.038 4.094-3.077 3.921-3.077 3.729-3.072 3.525-3.019 3.347-2.917 3.193-2.814 3.041-2.679 2.908-2.506 2.794-2.331 2.68-2.13 2.58-1.903 2.494-1.677 2.409-1.439 2.33-1.19 2.256-.876 2.168-.569 2.057-.269 1.924 .031 1.792 .308 1.632 .561 1.444 .875 1.209 1.128 .927 1.317 .598 1.508 .27 1.603-.107 1.603-.536 1.604-.932 1.521-1.28 1.356-1.583 1.191-1.885 .971-2.136 .694-2.336 .412-2.545 .086-2.701-.285-2.806-.656-2.91-1.048-2.963-1.46-2.963-1.896-2.964-2.327-2.896-2.751-2.76-3.175-2.623-3.544-2.425-3.859-2.164-4.149-1.92-4.379-1.632-4.549-1.303-4.718-.972-4.805-.593-4.81-.164L-3.341-.162C-3.321-.436-3.262-.674-3.166-.875-3.07-1.077-2.938-1.243-2.771-1.374-2.607-1.508-2.414-1.607-2.192-1.673-1.97-1.738-1.726-1.77-1.461-1.77-1.236-1.77-1.027-1.742-.834-1.689-.64-1.637-.472-1.557-.329-1.45-.191-1.349-.08-1.222 .004-1.07 .087-.92 .129-.746 .129-.55 .128-.342 .085-.158 0 0" fill="#013540"/>
<path transform="matrix(1,0,0,-1,633.7502,383.2167)" d="M0 0C-.023 .216-.062 .422-.114 .618-.176 .842-.257 1.047-.357 1.232-.457 1.418-.578 1.576-.722 1.706-.849 1.82-.993 1.91-1.156 1.976-1.319 2.04-1.506 2.073-1.714 2.072-1.913 2.072-2.093 2.04-2.252 1.978-2.411 1.913-2.55 1.826-2.668 1.716-2.81 1.582-2.93 1.422-3.028 1.236-3.126 1.05-3.2 .843-3.253 .614-3.303 .418-3.338 .211-3.359-.007-3.382-.226-3.394-.444-3.394-.665L-3.392-1.852C-3.392-2.068-3.381-2.282-3.36-2.494-3.339-2.707-3.305-2.91-3.256-3.106-3.202-3.325-3.129-3.53-3.037-3.721-2.945-3.91-2.835-4.07-2.704-4.2-2.576-4.323-2.431-4.42-2.266-4.49-2.101-4.562-1.909-4.598-1.693-4.598-1.485-4.597-1.297-4.562-1.127-4.492-.958-4.423-.812-4.329-.69-4.211-.548-4.075-.429-3.915-.333-3.729-.237-3.544-.162-3.339-.104-3.114-.056-2.919-.02-2.714 .002-2.5 .024-2.285 .037-2.068 .041-1.848L.039-.661C.035-.437 .022-.217 0 0M1.429-2.887C1.365-3.221 1.275-3.537 1.157-3.835 1.03-4.133 .874-4.408 .687-4.658 .499-4.909 .284-5.125 .039-5.305-.197-5.469-.46-5.597-.747-5.691-1.034-5.785-1.35-5.832-1.692-5.833-2.047-5.833-2.373-5.783-2.668-5.685-2.964-5.585-3.229-5.447-3.461-5.272-3.698-5.093-3.905-4.877-4.083-4.624-4.26-4.372-4.409-4.095-4.527-3.793-4.642-3.503-4.729-3.194-4.785-2.865-4.844-2.537-4.872-2.2-4.872-1.853L-4.874-.678C-4.874-.315-4.845 .035-4.783 .374-4.722 .713-4.631 1.033-4.509 1.335-4.391 1.624-4.246 1.891-4.072 2.135-3.898 2.377-3.695 2.588-3.458 2.768-3.229 2.944-2.97 3.08-2.678 3.176-2.387 3.272-2.065 3.32-1.715 3.32-1.359 3.321-1.033 3.272-.735 3.175-.437 3.077-.171 2.94 .066 2.766 .303 2.591 .51 2.385 .686 2.148 .86 1.912 1.008 1.652 1.127 1.372 1.257 1.07 1.356 .747 1.421 .402 1.486 .058 1.521-.3 1.521-.671L1.522-1.846C1.522-2.205 1.49-2.552 1.429-2.887" fill="#013540"/>
<path transform="matrix(1,0,0,-1,648.7024,387.7147)" d="M0 0 .765 .001C1.026 .001 1.266 .032 1.484 .097 1.702 .16 1.899 .251 2.073 .369 2.253 .491 2.413 .646 2.554 .832 2.694 1.018 2.809 1.23 2.898 1.472 2.976 1.675 3.035 1.897 3.075 2.138 3.115 2.379 3.136 2.637 3.135 2.91V3.62C3.134 3.889 3.113 4.143 3.073 4.384 3.031 4.624 2.972 4.847 2.895 5.051 2.797 5.3 2.665 5.524 2.502 5.727 2.339 5.929 2.145 6.092 1.921 6.219 1.757 6.312 1.573 6.385 1.369 6.435 1.165 6.485 .944 6.513 .708 6.518L-.008 6.517ZM-1.495 7.714 .707 7.717C1.091 7.717 1.451 7.674 1.79 7.586 2.129 7.498 2.437 7.378 2.714 7.223 3.017 7.063 3.285 6.865 3.52 6.624 3.754 6.384 3.952 6.114 4.111 5.817 4.274 5.508 4.401 5.167 4.491 4.796 4.582 4.425 4.627 4.028 4.628 3.608V2.911C4.629 2.507 4.587 2.125 4.505 1.764 4.421 1.402 4.303 1.073 4.147 .775 3.997 .486 3.815 .222 3.601-.015 3.387-.251 3.149-.453 2.89-.621 2.596-.805 2.271-.946 1.913-1.045 1.557-1.143 1.174-1.192 .766-1.192L-1.485-1.195Z" fill="#013540"/>
<path transform="matrix(1,0,0,-1,657.8586,384.9022)" d="M0 0 .003-2.783 4.305-2.778 4.306-3.99-1.471-3.997-1.48 4.912 4.265 4.919 4.266 3.701-.005 3.696-.002 1.187 3.682 1.191 3.684 .004Z" fill="#013540"/>
<path transform="matrix(1,0,0,-1,680.2102,387.6601)" d="M0 0 .001-1.212-5.727-1.219-5.736 7.69-4.262 7.692-4.253-.005Z" fill="#013540"/>
<path transform="matrix(1,0,0,-1,687.3401,385.5535)" d="M0 0-1.026 3.523-2.063-.002ZM-2.434-1.264-3.037-3.313-4.567-3.315-1.677 5.597-.373 5.599 2.487-3.308 .964-3.31 .362-1.26Z" fill="#013540"/>
<path transform="matrix(1,0,0,-1,705.9387,385.9978)" d="M0 0C-.086 .159-.206 .303-.362 .429-.525 .546-.719 .653-.94 .749-1.163 .845-1.411 .931-1.684 1.008-2.104 1.125-2.492 1.271-2.845 1.444-3.197 1.617-3.498 1.812-3.748 2.028-3.997 2.247-4.191 2.497-4.332 2.776-4.474 3.056-4.544 3.371-4.545 3.722-4.545 4.102-4.464 4.442-4.302 4.747-4.139 5.051-3.918 5.311-3.642 5.528-3.364 5.74-3.041 5.902-2.672 6.016-2.303 6.127-1.914 6.185-1.507 6.185-1.074 6.186-.671 6.119-.298 5.987 .075 5.855 .4 5.67 .678 5.435 .956 5.194 1.176 4.907 1.337 4.576 1.499 4.243 1.579 3.876 1.58 3.472L.124 3.47C.104 3.694 .055 3.899-.021 4.085-.096 4.271-.201 4.431-.336 4.565-.476 4.694-.644 4.798-.842 4.873-1.039 4.948-1.267 4.985-1.523 4.985-1.748 4.985-1.955 4.956-2.145 4.896-2.334 4.836-2.499 4.754-2.638 4.647-2.775 4.538-2.883 4.405-2.961 4.249-3.038 4.094-3.077 3.921-3.077 3.729-3.072 3.525-3.019 3.347-2.917 3.194-2.814 3.042-2.679 2.908-2.506 2.794-2.331 2.68-2.13 2.58-1.903 2.495-1.677 2.409-1.439 2.33-1.19 2.257-.876 2.168-.569 2.057-.269 1.925 .031 1.792 .308 1.632 .561 1.445 .875 1.209 1.128 .927 1.317 .598 1.508 .271 1.603-.107 1.603-.536 1.604-.932 1.521-1.28 1.356-1.582 1.191-1.885 .971-2.136 .694-2.336 .412-2.545 .086-2.701-.285-2.805-.656-2.91-1.048-2.962-1.46-2.963-1.896-2.963-2.327-2.896-2.751-2.759-3.175-2.623-3.544-2.425-3.859-2.164-4.149-1.92-4.379-1.632-4.549-1.302-4.718-.972-4.805-.593-4.81-.164L-3.341-.162C-3.321-.436-3.262-.674-3.166-.875-3.07-1.077-2.938-1.243-2.771-1.373-2.607-1.508-2.414-1.607-2.192-1.673-1.97-1.737-1.726-1.77-1.461-1.77-1.236-1.77-1.027-1.742-.834-1.689-.64-1.637-.472-1.557-.329-1.449-.191-1.348-.08-1.222 .004-1.07 .087-.92 .129-.746 .129-.55 .128-.342 .085-.158 0 0" fill="#013540"/>
<path transform="matrix(1,0,0,-1,714.9631,383.1228)" d="M0 0C-.023 .215-.062 .421-.114 .617-.176 .841-.257 1.046-.357 1.231-.457 1.417-.578 1.575-.722 1.706-.849 1.82-.993 1.909-1.156 1.975-1.319 2.039-1.506 2.072-1.714 2.072-1.913 2.071-2.093 2.039-2.252 1.977-2.411 1.913-2.55 1.826-2.668 1.715-2.81 1.581-2.93 1.421-3.028 1.235-3.126 1.049-3.2 .842-3.253 .614-3.303 .418-3.338 .211-3.359-.007-3.382-.226-3.394-.444-3.394-.665L-3.392-1.852C-3.392-2.068-3.381-2.282-3.36-2.494-3.339-2.707-3.305-2.91-3.256-3.106-3.202-3.326-3.129-3.531-3.037-3.722-2.945-3.911-2.835-4.071-2.704-4.201-2.576-4.324-2.431-4.42-2.266-4.491-2.101-4.562-1.909-4.599-1.693-4.598-1.485-4.598-1.297-4.562-1.127-4.493-.958-4.424-.812-4.329-.69-4.211-.548-4.076-.429-3.916-.333-3.73-.237-3.545-.162-3.34-.104-3.115-.056-2.92-.02-2.715 .002-2.5 .024-2.285 .037-2.068 .041-1.848L.039-.661C.035-.437 .022-.217 0 0M1.429-2.888C1.365-3.222 1.275-3.538 1.157-3.836 1.03-4.134 .874-4.408 .687-4.659 .499-4.91 .284-5.126 .039-5.305-.197-5.47-.46-5.598-.747-5.691-1.034-5.786-1.35-5.833-1.692-5.833-2.047-5.834-2.373-5.784-2.668-5.686-2.964-5.586-3.229-5.448-3.461-5.273-3.698-5.094-3.905-4.878-4.083-4.625-4.26-4.372-4.409-4.096-4.527-3.794-4.642-3.504-4.729-3.195-4.785-2.866-4.844-2.538-4.872-2.201-4.872-1.854L-4.874-.679C-4.874-.316-4.845 .034-4.783 .373-4.722 .712-4.631 1.032-4.509 1.334-4.391 1.623-4.246 1.891-4.072 2.134-3.898 2.376-3.695 2.587-3.458 2.767-3.229 2.943-2.97 3.079-2.678 3.175-2.387 3.271-2.065 3.319-1.715 3.32-1.359 3.32-1.033 3.271-.735 3.175-.437 3.076-.171 2.939 .066 2.766 .303 2.59 .51 2.384 .686 2.147 .86 1.912 1.008 1.652 1.127 1.371 1.257 1.069 1.356 .746 1.421 .401 1.486 .057 1.521-.301 1.521-.672L1.522-1.847C1.522-2.206 1.49-2.553 1.429-2.888" fill="#013540"/>
<path transform="matrix(1,0,0,-1,725.1799,387.2577)" d="M0 0C-.162-.353-.376-.654-.642-.902-.909-1.156-1.229-1.352-1.598-1.488-1.967-1.626-2.376-1.694-2.824-1.695-3.191-1.695-3.529-1.646-3.837-1.546-4.146-1.446-4.42-1.306-4.66-1.122-4.894-.95-5.097-.743-5.27-.502-5.443-.259-5.59 .007-5.708 .297-5.827 .582-5.916 .893-5.976 1.226-6.035 1.561-6.065 1.909-6.065 2.272L-6.067 3.49C-6.067 3.837-6.04 4.171-5.982 4.493-5.926 4.816-5.841 5.12-5.727 5.406-5.604 5.725-5.447 6.013-5.253 6.271-5.06 6.532-4.837 6.753-4.584 6.937-4.344 7.104-4.077 7.235-3.786 7.329-3.494 7.423-3.175 7.471-2.828 7.471-2.359 7.472-1.94 7.402-1.571 7.265-1.202 7.126-.887 6.931-.624 6.679-.359 6.422-.15 6.111 .004 5.749 .156 5.387 .257 4.982 .302 4.538L-1.167 4.536C-1.191 4.801-1.242 5.041-1.318 5.255-1.394 5.469-1.496 5.651-1.627 5.803-1.763 5.952-1.928 6.067-2.124 6.147-2.319 6.227-2.554 6.267-2.827 6.266-3.019 6.266-3.191 6.239-3.345 6.186-3.497 6.132-3.633 6.057-3.751 5.959-3.913 5.84-4.049 5.687-4.157 5.497-4.266 5.307-4.354 5.095-4.422 4.862-4.476 4.658-4.515 4.441-4.542 4.211-4.567 3.98-4.58 3.745-4.58 3.504L-4.578 2.274C-4.578 1.977-4.562 1.697-4.525 1.436-4.491 1.175-4.437 .937-4.362 .72-4.306 .54-4.232 .378-4.146 .231-4.058 .085-3.952-.042-3.829-.147-3.702-.262-3.557-.349-3.392-.407-3.227-.466-3.038-.496-2.825-.496-2.572-.496-2.349-.458-2.152-.385-1.957-.312-1.789-.203-1.651-.06-1.518 .079-1.409 .253-1.327 .461-1.246 .669-1.193 .907-1.169 1.177L.306 1.179C.265 .746 .163 .354 0 0" fill="#013540"/>
<path transform="matrix(1,0,0,-1,733.9573,379.9013)" d="M0 0 .001-1.218-1.902-1.22-1.895-7.699 .009-7.697 .01-8.909-5.24-8.915-5.241-7.703-3.381-7.701-3.389-1.222-5.249-1.224-5.25-.006Z" fill="#013540"/>
<path transform="matrix(1,0,0,-1,739.0705,384.8094)" d="M0 0 .003-2.783 4.305-2.778 4.306-3.99-1.471-3.997-1.48 4.912 4.265 4.919 4.266 3.701-.005 3.696-.002 1.187 3.682 1.191 3.684 .004Z" fill="#013540"/>
<path transform="matrix(1,0,0,-1,747.9621,387.6014)" d="M0 0 .765 .001C1.026 .001 1.266 .033 1.484 .097 1.702 .16 1.899 .251 2.073 .37 2.253 .492 2.413 .646 2.554 .832 2.694 1.018 2.809 1.231 2.898 1.473 2.976 1.676 3.035 1.898 3.075 2.139 3.115 2.38 3.136 2.637 3.135 2.91V3.62C3.134 3.889 3.113 4.144 3.073 4.385 3.031 4.625 2.972 4.848 2.895 5.052 2.797 5.3 2.665 5.524 2.502 5.727 2.339 5.929 2.145 6.093 1.921 6.219 1.757 6.312 1.573 6.385 1.369 6.436 1.165 6.486 .944 6.513 .708 6.518L-.008 6.517ZM-1.495 7.714 .707 7.717C1.091 7.717 1.451 7.674 1.79 7.586 2.129 7.499 2.437 7.378 2.714 7.223 3.017 7.064 3.285 6.865 3.52 6.624 3.754 6.385 3.952 6.115 4.111 5.817 4.274 5.508 4.401 5.167 4.491 4.796 4.582 4.426 4.627 4.029 4.628 3.609V2.912C4.629 2.508 4.587 2.126 4.505 1.764 4.421 1.402 4.303 1.073 4.147 .775 3.997 .486 3.815 .223 3.601-.015 3.387-.251 3.149-.453 2.89-.62 2.596-.805 2.271-.945 1.913-1.045 1.557-1.143 1.174-1.191 .766-1.192L-1.485-1.195Z" fill="#013540"/>
<path transform="matrix(1,0,0,-1,759.5295,385.4706)" d="M0 0-1.026 3.523-2.063-.003ZM-2.434-1.264-3.037-3.314-4.567-3.316-1.677 5.597-.373 5.598 2.487-3.308 .964-3.31 .362-1.261Z" fill="#013540"/>
<path transform="matrix(1,0,0,-1,766.01,387.5809)" d="M0 0 .765 .001C1.026 .002 1.266 .033 1.484 .097 1.702 .16 1.899 .252 2.073 .37 2.253 .492 2.413 .646 2.554 .832 2.694 1.019 2.809 1.231 2.898 1.473 2.976 1.676 3.035 1.898 3.075 2.139 3.115 2.38 3.136 2.637 3.135 2.91V3.62C3.134 3.889 3.113 4.144 3.073 4.385 3.031 4.625 2.972 4.848 2.895 5.052 2.797 5.301 2.665 5.524 2.502 5.727 2.339 5.929 2.145 6.093 1.921 6.22 1.757 6.312 1.573 6.385 1.369 6.436 1.165 6.486 .944 6.513 .708 6.518L-.008 6.517ZM-1.495 7.715 .707 7.717C1.091 7.718 1.451 7.674 1.79 7.586 2.129 7.499 2.437 7.378 2.714 7.224 3.017 7.064 3.285 6.865 3.52 6.625 3.754 6.385 3.952 6.115 4.111 5.817 4.274 5.508 4.401 5.168 4.491 4.797 4.582 4.426 4.627 4.029 4.628 3.609V2.912C4.629 2.508 4.587 2.126 4.505 1.765 4.421 1.403 4.303 1.073 4.147 .775 3.997 .486 3.815 .223 3.601-.014 3.387-.251 3.149-.453 2.89-.62 2.596-.805 2.271-.945 1.913-1.044 1.557-1.143 1.174-1.191 .766-1.192L-1.485-1.194Z" fill="#013540"/>
<path transform="matrix(1,0,0,-1,785.4778,383.6551)" d="M0 0 1.214 3.814 3.043 3.816 3.053-5.093 1.67-5.095 1.667-2.072 1.748 1.905 .383-2.349-.383-2.35-1.63 1.754-1.545-2.076-1.542-5.099-2.919-5.1-2.929 3.81-1.105 3.812Z" fill="#013540"/>
<path transform="matrix(1,0,0,-1,793.2121,384.7478)" d="M0 0 .003-2.783 4.305-2.778 4.306-3.99-1.471-3.996-1.48 4.913 4.265 4.919 4.266 3.701-.005 3.696-.002 1.187 3.682 1.192 3.684 .005Z" fill="#013540"/>
<path transform="matrix(1,0,0,-1,805.3137,379.8202)" d="M0 0 1.726 .002-.809-4.418 1.796-8.906 .083-8.908-1.701-5.533-3.472-8.913-5.21-8.915-2.608-4.421-5.152-.006-3.433-.004-1.728-3.325Z" fill="#013540"/>
<path transform="matrix(1,0,0,-1,815.1701,379.8084)" d="M0 0 .001-1.218-1.902-1.22-1.895-7.699 .009-7.697 .01-8.909-5.24-8.915-5.241-7.703-3.381-7.701-3.389-1.222-5.249-1.224-5.25-.006Z" fill="#013540"/>
<path transform="matrix(1,0,0,-1,824.4397,387.1434)" d="M0 0C-.162-.353-.376-.655-.642-.903-.909-1.156-1.229-1.353-1.598-1.489-1.967-1.626-2.376-1.695-2.824-1.695-3.191-1.696-3.529-1.646-3.837-1.547-4.146-1.447-4.42-1.306-4.66-1.123-4.894-.951-5.097-.744-5.27-.502-5.443-.26-5.59 .006-5.708 .296-5.827 .581-5.916 .892-5.976 1.226-6.035 1.561-6.065 1.909-6.065 2.272L-6.067 3.49C-6.067 3.837-6.04 4.171-5.982 4.493-5.926 4.815-5.841 5.119-5.727 5.405-5.604 5.724-5.447 6.012-5.253 6.271-5.06 6.531-4.837 6.752-4.584 6.937-4.344 7.104-4.077 7.234-3.786 7.328-3.494 7.423-3.175 7.47-2.828 7.471-2.359 7.471-1.94 7.402-1.571 7.264-1.202 7.125-.887 6.931-.624 6.678-.359 6.421-.15 6.111 .004 5.748 .156 5.386 .257 4.981 .302 4.537L-1.167 4.536C-1.191 4.8-1.242 5.04-1.318 5.254-1.394 5.468-1.496 5.65-1.627 5.802-1.763 5.952-1.928 6.067-2.124 6.146-2.319 6.226-2.554 6.266-2.827 6.266-3.019 6.265-3.191 6.238-3.345 6.185-3.497 6.132-3.633 6.057-3.751 5.958-3.913 5.839-4.049 5.686-4.157 5.496-4.266 5.306-4.354 5.095-4.422 4.862-4.476 4.658-4.515 4.441-4.542 4.211-4.567 3.98-4.58 3.745-4.58 3.504L-4.578 2.274C-4.578 1.977-4.562 1.697-4.525 1.436-4.491 1.175-4.437 .937-4.362 .72-4.306 .54-4.232 .377-4.146 .23-4.058 .084-3.952-.043-3.829-.148-3.702-.262-3.557-.349-3.392-.408-3.227-.467-3.038-.497-2.825-.496-2.572-.496-2.349-.459-2.152-.386-1.957-.312-1.789-.203-1.651-.061-1.518 .078-1.409 .252-1.327 .46-1.246 .668-1.193 .906-1.169 1.177L.306 1.178C.265 .745 .163 .353 0 0" fill="#013540"/>
<path transform="matrix(1,0,0,-1,831.718,385.3886)" d="M0 0-1.026 3.523-2.063-.002ZM-2.434-1.263-3.037-3.313-4.567-3.315-1.677 5.597-.373 5.599 2.487-3.308 .964-3.309 .362-1.26Z" fill="#013540"/>
<path transform="matrix(1,0,0,-1,841.0569,388.6884)" d="M0 0-2.9 6.128V-.003L-4.387-.005-4.396 8.904-2.903 8.906-.021 2.803-.016 8.909 1.465 8.911 1.475 .002Z" fill="#013540"/>
<path transform="matrix(1,0,0,-1,849.7649,385.3671)" d="M0 0-1.026 3.522-2.063-.003ZM-2.434-1.264-3.037-3.314-4.567-3.316-1.677 5.597-.373 5.598 2.487-3.309 .964-3.31 .362-1.261Z" fill="#013540"/>
<path transform="matrix(1,0,0,-1,531.4192,408.1228)" d="M0 0 .765 .001C1.026 .001 1.266 .033 1.483 .097 1.701 .16 1.898 .252 2.073 .37 2.253 .492 2.413 .646 2.554 .832 2.693 1.018 2.809 1.231 2.898 1.473 2.976 1.676 3.034 1.898 3.075 2.139 3.115 2.38 3.135 2.637 3.135 2.91L3.134 3.62C3.134 3.889 3.113 4.144 3.072 4.385 3.031 4.625 2.972 4.848 2.895 5.052 2.796 5.301 2.665 5.524 2.502 5.727 2.339 5.929 2.144 6.093 1.92 6.22 1.757 6.312 1.573 6.385 1.369 6.436 1.165 6.486 .944 6.513 .708 6.518L-.008 6.517ZM-1.495 7.715 .707 7.717C1.091 7.718 1.451 7.674 1.79 7.586 2.129 7.499 2.437 7.378 2.714 7.223 3.016 7.064 3.285 6.865 3.52 6.624 3.754 6.385 3.951 6.115 4.111 5.817 4.274 5.508 4.401 5.167 4.491 4.797 4.581 4.426 4.627 4.029 4.627 3.609L4.628 2.912C4.629 2.508 4.587 2.126 4.505 1.765 4.421 1.402 4.302 1.073 4.147 .775 3.997 .486 3.814 .223 3.601-.014 3.387-.251 3.149-.453 2.889-.62 2.596-.805 2.271-.945 1.913-1.044 1.557-1.143 1.174-1.191 .766-1.192L-1.485-1.194Z" fill="#013540"/>
<path transform="matrix(1,0,0,-1,540.5735,405.3103)" d="M0 0 .004-2.783 4.306-2.778 4.307-3.99-1.47-3.997-1.479 4.912 4.266 4.919 4.267 3.701-.004 3.696-.001 1.187 3.683 1.191 3.684 .004Z" fill="#013540"/>
<path transform="matrix(1,0,0,-1,562.5324,400.3709)" d="M0 0 .001-1.218-1.902-1.22-1.895-7.699 .009-7.697 .01-8.909-5.24-8.915-5.241-7.703-3.381-7.701-3.389-1.222-5.249-1.224-5.25-.006Z" fill="#013540"/>
<path transform="matrix(1,0,0,-1,570.3723,409.2713)" d="M0 0-2.9 6.128V-.003L-4.387-.005-4.396 8.904-2.903 8.906-.021 2.803-.016 8.909 1.465 8.911 1.475 .002Z" fill="#013540"/>
<path transform="matrix(1,0,0,-1,574.4914,400.3573)" d="M0 0 1.609 .002 3.311-6.164 3.458-6.696 3.61-6.158 5.311 .006 6.914 .008 4.183-8.904 2.751-8.906Z" fill="#013540"/>
<path transform="matrix(1,0,0,-1,585.6916,405.2586)" d="M0 0 .004-2.783 4.306-2.778 4.307-3.99-1.47-3.997-1.479 4.912 4.266 4.919 4.267 3.701-.004 3.696-.001 1.187 3.683 1.191 3.684 .004Z" fill="#013540"/>
<path transform="matrix(1,0,0,-1,597.6789,406.3954)" d="M0 0C-.087 .159-.207 .303-.362 .429-.525 .546-.719 .653-.94 .749-1.163 .845-1.411 .931-1.685 1.008-2.105 1.126-2.492 1.271-2.845 1.444-3.197 1.617-3.498 1.812-3.748 2.028-3.997 2.247-4.191 2.497-4.333 2.776-4.474 3.056-4.544 3.371-4.545 3.722-4.545 4.102-4.465 4.442-4.302 4.747-4.139 5.051-3.919 5.311-3.642 5.528-3.364 5.74-3.041 5.902-2.672 6.016-2.304 6.127-1.915 6.185-1.508 6.185-1.075 6.186-.672 6.119-.298 5.987 .075 5.855 .4 5.67 .678 5.435 .956 5.194 1.176 4.907 1.337 4.576 1.499 4.243 1.579 3.876 1.58 3.472L.124 3.47C.103 3.694 .055 3.899-.021 4.085-.096 4.271-.202 4.431-.337 4.565-.476 4.694-.644 4.798-.842 4.873-1.039 4.948-1.267 4.986-1.523 4.985-1.748 4.985-1.955 4.956-2.145 4.896-2.334 4.836-2.499 4.754-2.638 4.647-2.776 4.538-2.884 4.405-2.961 4.25-3.038 4.094-3.077 3.921-3.077 3.729-3.073 3.525-3.019 3.347-2.917 3.194-2.814 3.042-2.679 2.908-2.507 2.794-2.332 2.68-2.13 2.58-1.903 2.495-1.677 2.409-1.439 2.33-1.19 2.257-.876 2.168-.569 2.057-.27 1.925 .031 1.792 .308 1.632 .561 1.445 .875 1.209 1.128 .927 1.317 .599 1.507 .271 1.603-.107 1.603-.536 1.604-.932 1.521-1.28 1.355-1.582 1.191-1.885 .971-2.136 .693-2.336 .412-2.545 .086-2.701-.285-2.805-.656-2.91-1.048-2.962-1.46-2.963-1.896-2.963-2.327-2.896-2.751-2.759-3.175-2.623-3.545-2.425-3.859-2.164-4.149-1.92-4.379-1.632-4.549-1.302-4.718-.972-4.806-.593-4.81-.164L-3.341-.162C-3.321-.436-3.263-.674-3.166-.875-3.07-1.077-2.938-1.242-2.771-1.373-2.608-1.508-2.414-1.607-2.192-1.673-1.97-1.737-1.726-1.77-1.461-1.77-1.236-1.769-1.027-1.742-.834-1.689-.64-1.637-.473-1.557-.33-1.449-.191-1.348-.08-1.222 .004-1.07 .087-.92 .129-.746 .128-.55 .128-.342 .085-.158 0 0" fill="#013540"/>
<path transform="matrix(1,0,0,-1,605.7541,401.5399)" d="M0 0 .009-7.691-1.454-7.692-1.463-.001-4.191-.004-4.192 1.214 2.746 1.222 2.747 .004Z" fill="#013540"/>
<path transform="matrix(1,0,0,-1,616.674,400.3094)" d="M0 0 .001-1.218-1.902-1.22-1.895-7.699 .009-7.697 .01-8.909-5.24-8.915-5.241-7.703-3.381-7.701-3.389-1.222-5.249-1.224-5.25-.006Z" fill="#013540"/>
<path transform="matrix(1,0,0,-1,625.761,408.538)" d="M0 0C-.175-.137-.373-.259-.592-.365-.869-.5-1.172-.604-1.498-.681-1.824-.757-2.173-.795-2.544-.795-2.887-.795-3.207-.751-3.505-.661-3.803-.573-4.071-.446-4.312-.283-4.554-.12-4.77 .077-4.959 .31-5.148 .542-5.308 .801-5.434 1.086-5.577 1.383-5.686 1.712-5.76 2.07-5.834 2.43-5.872 2.807-5.878 3.202L-5.879 4.341C-5.874 4.724-5.84 5.091-5.772 5.442-5.706 5.793-5.607 6.117-5.477 6.415-5.352 6.697-5.2 6.954-5.024 7.187-4.851 7.419-4.65 7.621-4.426 7.794-4.182 7.973-3.911 8.111-3.615 8.211-3.32 8.309-2.999 8.357-2.652 8.358-2.184 8.358-1.768 8.296-1.403 8.17-1.04 8.044-.73 7.862-.474 7.626-.212 7.387-.006 7.096 .146 6.755 .297 6.414 .394 6.032 .435 5.607L-1.009 5.606C-1.047 5.84-1.102 6.051-1.175 6.24-1.249 6.429-1.348 6.589-1.47 6.72-1.601 6.858-1.761 6.964-1.95 7.038-2.14 7.11-2.363 7.146-2.62 7.146-2.808 7.146-2.981 7.114-3.141 7.051-3.3 6.987-3.442 6.901-3.568 6.791-3.716 6.664-3.842 6.508-3.95 6.322-4.059 6.137-4.146 5.93-4.216 5.701-4.276 5.501-4.321 5.287-4.35 5.059-4.377 4.83-4.392 4.596-4.392 4.354L-4.391 3.204C-4.39 2.923-4.37 2.656-4.332 2.403-4.292 2.15-4.233 1.915-4.156 1.699-4.095 1.536-4.021 1.383-3.938 1.24-3.854 1.098-3.756 .971-3.642 .862-3.498 .719-3.332 .609-3.142 .531-2.952 .454-2.736 .414-2.496 .41-2.354 .41-2.209 .419-2.062 .437-1.915 .457-1.774 .486-1.64 .527-1.509 .568-1.39 .62-1.279 .684-1.169 .748-1.082 .822-1.017 .908L-1.012 2.688-2.628 2.687-2.629 3.83 .431 3.833 .447 .426C.324 .278 .176 .137 0 0" fill="#013540"/>
<path transform="matrix(1,0,0,-1,633.2219,405.8886)" d="M0 0-1.026 3.522-2.063-.003ZM-2.434-1.264-3.037-3.314-4.567-3.316-1.677 5.597-.373 5.598 2.487-3.308 .964-3.31 .362-1.261Z" fill="#013540"/>
<path transform="matrix(1,0,0,-1,643.9904,407.6239)" d="M0 0C-.162-.353-.376-.654-.642-.902-.91-1.156-1.229-1.352-1.598-1.489-1.967-1.626-2.376-1.695-2.824-1.695-3.191-1.695-3.529-1.646-3.837-1.546-4.146-1.447-4.42-1.306-4.661-1.122-4.894-.95-5.097-.744-5.27-.502-5.444-.259-5.59 .007-5.708 .297-5.828 .581-5.916 .892-5.976 1.226-6.036 1.561-6.065 1.909-6.066 2.272L-6.067 3.49C-6.067 3.837-6.04 4.171-5.982 4.493-5.927 4.815-5.841 5.119-5.727 5.406-5.605 5.725-5.447 6.013-5.253 6.271-5.061 6.531-4.837 6.753-4.584 6.937-4.344 7.104-4.077 7.235-3.786 7.329-3.495 7.423-3.176 7.471-2.829 7.471-2.36 7.472-1.941 7.402-1.571 7.264-1.202 7.126-.887 6.931-.625 6.679-.359 6.422-.15 6.111 .003 5.748 .156 5.386 .256 4.982 .302 4.538L-1.167 4.536C-1.191 4.801-1.242 5.041-1.318 5.255-1.394 5.469-1.496 5.651-1.628 5.802-1.763 5.952-1.928 6.067-2.124 6.147-2.319 6.227-2.554 6.266-2.827 6.266-3.019 6.266-3.191 6.239-3.345 6.185-3.497 6.132-3.633 6.057-3.751 5.959-3.914 5.84-4.05 5.687-4.157 5.496-4.266 5.306-4.354 5.095-4.423 4.862-4.476 4.658-4.515 4.441-4.542 4.211-4.568 3.98-4.58 3.745-4.58 3.504L-4.579 2.274C-4.578 1.977-4.562 1.697-4.526 1.436-4.491 1.175-4.437 .937-4.363 .72-4.307 .54-4.232 .377-4.146 .23-4.058 .085-3.952-.042-3.83-.147-3.703-.262-3.557-.349-3.392-.408-3.227-.467-3.038-.496-2.825-.496-2.572-.496-2.349-.458-2.152-.385-1.958-.312-1.79-.203-1.651-.061-1.518 .078-1.409 .253-1.327 .461-1.247 .669-1.193 .907-1.169 1.177L.306 1.179C.265 .746 .163 .353 0 0" fill="#013540"/>
<path transform="matrix(1,0,0,-1,652.7678,400.2674)" d="M0 0 .001-1.218-1.902-1.221-1.895-7.7 .009-7.697 .01-8.909-5.24-8.916-5.241-7.704-3.381-7.701-3.389-1.222-5.249-1.225-5.25-.007Z" fill="#013540"/>
<path transform="matrix(1,0,0,-1,661.3791,397.8836)" d="M0 0-1.668-1.673-2.794-1.675-1.664-.002ZM-.535-5.575C-.558-5.359-.596-5.153-.648-4.957-.711-4.733-.791-4.528-.892-4.343-.991-4.157-1.113-4-1.257-3.869-1.383-3.755-1.527-3.665-1.69-3.6-1.854-3.536-2.04-3.503-2.248-3.503-2.447-3.503-2.627-3.535-2.786-3.599-2.945-3.662-3.084-3.749-3.202-3.859-3.345-3.993-3.464-4.153-3.563-4.34-3.66-4.526-3.735-4.733-3.787-4.961-3.837-5.157-3.872-5.364-3.895-5.582-3.916-5.801-3.928-6.02-3.928-6.24L-3.927-7.427C-3.926-7.644-3.915-7.857-3.895-8.069-3.874-8.282-3.839-8.485-3.79-8.682-3.736-8.901-3.664-9.106-3.571-9.297-3.479-9.485-3.369-9.646-3.238-9.775-3.111-9.898-2.966-9.995-2.8-10.066-2.635-10.137-2.443-10.173-2.228-10.173-2.02-10.173-1.831-10.137-1.661-10.067-1.493-9.998-1.348-9.904-1.225-9.786-1.082-9.651-.963-9.49-.867-9.305-.772-9.119-.696-8.914-.639-8.689-.59-8.494-.555-8.289-.532-8.075-.51-7.86-.497-7.644-.494-7.423L-.495-6.236C-.499-6.012-.512-5.792-.535-5.575M.895-8.462C.831-8.796 .74-9.112 .623-9.411 .496-9.709 .339-9.983 .152-10.233-.035-10.484-.251-10.701-.496-10.88-.731-11.044-.994-11.173-1.281-11.267-1.568-11.36-1.884-11.408-2.227-11.408-2.581-11.408-2.907-11.359-3.202-11.26-3.498-11.16-3.763-11.023-3.996-10.848-4.232-10.668-4.439-10.453-4.617-10.2-4.795-9.947-4.943-9.67-5.062-9.368-5.177-9.078-5.263-8.771-5.319-8.441-5.378-8.113-5.406-7.776-5.407-7.429L-5.408-6.254C-5.408-5.892-5.379-5.541-5.317-5.202-5.257-4.862-5.165-4.542-5.043-4.24-4.926-3.951-4.78-3.685-4.606-3.441-4.434-3.199-4.229-2.987-3.992-2.808-3.764-2.632-3.504-2.495-3.212-2.399-2.922-2.304-2.601-2.255-2.25-2.255-1.895-2.255-1.568-2.303-1.27-2.4-.972-2.498-.705-2.635-.468-2.81-.231-2.985-.025-3.19 .151-3.427 .326-3.663 .473-3.923 .593-4.204 .723-4.505 .821-4.828 .887-5.173 .952-5.518 .986-5.875 .986-6.246L.987-7.421C.988-7.78 .956-8.127 .895-8.462" fill="#013540"/>
<path transform="matrix(1,0,0,-1,669.632,409.1581)" d="M0 0-2.9 6.128V-.003L-4.387-.005-4.396 8.904-2.903 8.906-.021 2.803-.016 8.909 1.465 8.911 1.475 .002Z" fill="#013540"/>
<path transform="matrix(1,0,0,-1,684.8205,407.9472)" d="M0 0 .765 .001C1.026 .001 1.266 .033 1.483 .097 1.701 .16 1.898 .251 2.073 .37 2.253 .492 2.413 .646 2.554 .832 2.693 1.018 2.809 1.23 2.898 1.473 2.976 1.676 3.034 1.898 3.075 2.139 3.115 2.38 3.135 2.637 3.135 2.91L3.134 3.62C3.134 3.889 3.113 4.144 3.072 4.385 3.031 4.625 2.972 4.848 2.895 5.052 2.796 5.3 2.665 5.524 2.502 5.727 2.339 5.929 2.144 6.093 1.92 6.219 1.757 6.312 1.573 6.385 1.369 6.436 1.165 6.486 .944 6.513 .708 6.518L-.008 6.517ZM-1.495 7.714 .707 7.717C1.091 7.717 1.451 7.674 1.79 7.586 2.129 7.499 2.437 7.378 2.714 7.223 3.016 7.064 3.285 6.865 3.52 6.624 3.754 6.385 3.951 6.115 4.111 5.817 4.274 5.508 4.401 5.167 4.491 4.796 4.581 4.426 4.627 4.029 4.627 3.609L4.628 2.912C4.629 2.508 4.587 2.126 4.505 1.764 4.421 1.402 4.302 1.073 4.147 .775 3.997 .486 3.814 .223 3.601-.015 3.387-.251 3.149-.453 2.889-.62 2.596-.805 2.271-.945 1.913-1.045 1.557-1.143 1.174-1.191 .766-1.192L-1.485-1.195Z" fill="#013540"/>
<path transform="matrix(1,0,0,-1,693.9748,405.1347)" d="M0 0 .004-2.783 4.306-2.778 4.307-3.99-1.47-3.997-1.479 4.912 4.266 4.919 4.267 3.701-.004 3.696-.001 1.187 3.683 1.191 3.684 .004Z" fill="#013540"/>
<path transform="matrix(1,0,0,-1,714.9856,403.3963)" d="M0 0C-.022 .215-.061 .421-.113 .617-.176 .841-.256 1.046-.356 1.231-.456 1.417-.578 1.575-.722 1.706-.848 1.82-.992 1.909-1.155 1.975-1.318 2.039-1.505 2.072-1.713 2.072-1.912 2.071-2.092 2.039-2.251 1.977-2.41 1.913-2.549 1.826-2.667 1.715-2.81 1.581-2.929 1.421-3.027 1.235-3.125 1.049-3.2 .842-3.252 .614-3.302 .418-3.337 .211-3.359-.007-3.381-.226-3.393-.444-3.393-.665L-3.392-1.852C-3.391-2.068-3.38-2.282-3.359-2.494-3.339-2.707-3.304-2.91-3.255-3.106-3.201-3.326-3.129-3.531-3.036-3.722-2.944-3.911-2.834-4.071-2.703-4.201-2.576-4.324-2.431-4.42-2.265-4.491-2.1-4.562-1.908-4.599-1.692-4.598-1.484-4.598-1.296-4.562-1.126-4.493-.958-4.424-.812-4.329-.689-4.211-.547-4.076-.428-3.916-.332-3.73-.237-3.545-.161-3.34-.104-3.115-.055-2.92-.02-2.715 .003-2.5 .025-2.285 .038-2.068 .041-1.848L.04-.661C.036-.437 .023-.217 0 0M1.43-2.888C1.366-3.222 1.275-3.538 1.158-3.836 1.031-4.134 .874-4.408 .687-4.659 .5-4.91 .284-5.126 .039-5.305-.196-5.47-.459-5.598-.746-5.691-1.033-5.786-1.349-5.833-1.691-5.833-2.046-5.834-2.372-5.784-2.667-5.686-2.963-5.586-3.228-5.448-3.461-5.273-3.697-5.094-3.904-4.878-4.082-4.625-4.26-4.372-4.408-4.096-4.526-3.794-4.642-3.504-4.728-3.195-4.784-2.866-4.843-2.538-4.871-2.201-4.872-1.854L-4.873-.679C-4.873-.316-4.844 .034-4.782 .373-4.722 .712-4.63 1.032-4.508 1.334-4.391 1.623-4.245 1.891-4.071 2.134-3.898 2.376-3.694 2.587-3.457 2.767-3.229 2.943-2.969 3.079-2.677 3.175-2.387 3.271-2.065 3.319-1.715 3.32-1.359 3.32-1.033 3.271-.734 3.175-.437 3.076-.17 2.939 .067 2.766 .304 2.59 .51 2.384 .687 2.147 .861 1.912 1.008 1.652 1.128 1.371 1.258 1.069 1.356 .746 1.422 .401 1.487 .057 1.521-.301 1.521-.672L1.522-1.847C1.523-2.206 1.491-2.553 1.43-2.888" fill="#013540"/>
<path transform="matrix(1,0,0,-1,722.5823,404.5027)" d="M0 0C.248 .006 .472 .045 .669 .121 .866 .196 1.035 .302 1.174 .437 1.312 .571 1.417 .73 1.488 .914 1.559 1.098 1.595 1.298 1.595 1.514 1.595 1.75 1.558 1.966 1.486 2.159 1.415 2.353 1.311 2.521 1.171 2.664 1.032 2.807 .863 2.916 .666 2.993 .468 3.071 .244 3.111-.004 3.115L-1.516 3.114-1.512-.001ZM-1.507-4.596-2.976-4.598-2.985 4.312-.005 4.314C.443 4.311 .856 4.244 1.233 4.114 1.611 3.983 1.937 3.799 2.21 3.559 2.484 3.317 2.696 3.027 2.847 2.685 2.999 2.342 3.074 1.956 3.075 1.528 3.075 1.116 3.001 .743 2.85 .411 2.699 .079 2.488-.207 2.215-.443 1.941-.684 1.617-.87 1.239-1.001 .862-1.133 .449-1.198 .001-1.199L-1.511-1.2Z" fill="#013540"/>
<path transform="matrix(1,0,0,-1,730.0696,405.0937)" d="M0 0 .004-2.783 4.306-2.778 4.307-3.99-1.47-3.997-1.479 4.912 4.266 4.919 4.267 3.701-.004 3.696-.001 1.187 3.683 1.192 3.684 .005Z" fill="#013540"/>
<path transform="matrix(1,0,0,-1,740.4026,404.4207)" d="M0 0C.261 .005 .495 .045 .706 .12 .916 .196 1.094 .306 1.241 .448 1.371 .571 1.474 .722 1.546 .901 1.619 1.081 1.656 1.285 1.656 1.514 1.655 1.771 1.615 1.996 1.536 2.189 1.456 2.383 1.339 2.545 1.183 2.676 1.04 2.798 .867 2.89 .663 2.953 .459 3.017 .23 3.05-.022 3.054L-1.381 3.053-1.377-.001ZM-1.376-1.2-1.372-4.657-2.841-4.659-2.851 4.25-.023 4.253C.437 4.249 .861 4.19 1.249 4.077 1.637 3.963 1.972 3.797 2.253 3.576 2.531 3.352 2.747 3.074 2.902 2.742 3.059 2.409 3.136 2.021 3.137 1.576 3.137 1.271 3.097 .993 3.019 .744 2.938 .495 2.828 .271 2.685 .07 2.543-.13 2.372-.305 2.172-.456 1.972-.606 1.75-.738 1.506-.849L3.413-4.573V-4.652L1.841-4.654 .129-1.199Z" fill="#013540"/>
<path transform="matrix(1,0,0,-1,750.5285,405.7548)" d="M0 0-1.026 3.523-2.063-.002ZM-2.434-1.264-3.037-3.313-4.567-3.315-1.677 5.597-.373 5.599 2.487-3.308 .964-3.31 .362-1.26Z" fill="#013540"/>
<path transform="matrix(1,0,0,-1,761.2981,407.4891)" d="M0 0C-.162-.353-.376-.655-.642-.903-.91-1.156-1.229-1.353-1.598-1.489-1.967-1.626-2.376-1.695-2.824-1.695-3.191-1.696-3.529-1.646-3.837-1.547-4.146-1.447-4.42-1.306-4.661-1.123-4.894-.951-5.097-.744-5.27-.502-5.444-.26-5.59 .006-5.708 .296-5.828 .581-5.916 .892-5.976 1.226-6.036 1.561-6.065 1.909-6.066 2.272L-6.067 3.49C-6.067 3.837-6.04 4.171-5.982 4.493-5.927 4.815-5.841 5.119-5.727 5.405-5.605 5.724-5.447 6.012-5.253 6.271-5.061 6.531-4.837 6.752-4.584 6.936-4.344 7.104-4.077 7.234-3.786 7.328-3.495 7.423-3.176 7.47-2.829 7.471-2.36 7.471-1.941 7.402-1.571 7.264-1.202 7.125-.887 6.931-.625 6.678-.359 6.421-.15 6.111 .003 5.748 .156 5.386 .256 4.981 .302 4.537L-1.167 4.535C-1.191 4.8-1.242 5.04-1.318 5.254-1.394 5.468-1.496 5.65-1.628 5.802-1.763 5.952-1.928 6.067-2.124 6.146-2.319 6.226-2.554 6.266-2.827 6.266-3.019 6.265-3.191 6.238-3.345 6.185-3.497 6.132-3.633 6.057-3.751 5.958-3.914 5.839-4.05 5.686-4.157 5.496-4.266 5.306-4.354 5.095-4.423 4.862-4.476 4.658-4.515 4.441-4.542 4.21-4.568 3.979-4.58 3.744-4.58 3.503L-4.579 2.273C-4.578 1.976-4.562 1.696-4.526 1.436-4.491 1.175-4.437 .937-4.363 .72-4.307 .54-4.232 .377-4.146 .23-4.058 .084-3.952-.043-3.83-.148-3.703-.263-3.557-.349-3.392-.408-3.227-.467-3.038-.497-2.825-.496-2.572-.496-2.349-.459-2.152-.386-1.958-.312-1.79-.203-1.651-.061-1.518 .078-1.409 .252-1.327 .46-1.247 .668-1.193 .906-1.169 1.176L.306 1.178C.265 .745 .163 .353 0 0" fill="#013540"/>
<path transform="matrix(1,0,0,-1,770.0754,400.1336)" d="M0 0 .001-1.218-1.902-1.22-1.895-7.699 .009-7.697 .01-8.909-5.24-8.915-5.241-7.703-3.381-7.701-3.389-1.222-5.249-1.224-5.25-.006Z" fill="#013540"/>
<path transform="matrix(1,0,0,-1,778.1506,403.324)" d="M0 0C-.022 .216-.061 .422-.113 .617-.176 .841-.256 1.046-.356 1.231-.456 1.417-.578 1.575-.722 1.706-.848 1.82-.992 1.909-1.155 1.975-1.318 2.039-1.505 2.072-1.713 2.072-1.912 2.071-2.092 2.039-2.251 1.977-2.41 1.913-2.549 1.826-2.667 1.715-2.81 1.581-2.929 1.421-3.027 1.235-3.125 1.049-3.2 .842-3.252 .614-3.302 .418-3.337 .211-3.359-.007-3.381-.226-3.393-.444-3.393-.665L-3.392-1.852C-3.391-2.068-3.38-2.282-3.359-2.494-3.339-2.707-3.304-2.91-3.255-3.106-3.201-3.326-3.129-3.531-3.036-3.722-2.944-3.911-2.834-4.071-2.703-4.201-2.576-4.323-2.431-4.42-2.265-4.491-2.1-4.562-1.908-4.599-1.692-4.598-1.484-4.598-1.296-4.562-1.126-4.493-.958-4.424-.812-4.329-.689-4.211-.547-4.076-.428-3.916-.332-3.73-.237-3.545-.161-3.34-.104-3.115-.055-2.919-.02-2.714 .003-2.5 .025-2.285 .038-2.068 .041-1.848L.04-.661C.036-.437 .023-.217 0 0M1.43-2.888C1.366-3.222 1.275-3.538 1.158-3.836 1.031-4.134 .874-4.408 .687-4.659 .5-4.91 .284-5.126 .039-5.305-.196-5.47-.459-5.598-.746-5.691-1.033-5.786-1.349-5.833-1.691-5.833-2.046-5.834-2.372-5.784-2.667-5.686-2.963-5.586-3.228-5.448-3.461-5.272-3.697-5.094-3.904-4.878-4.082-4.625-4.26-4.372-4.408-4.096-4.526-3.794-4.642-3.504-4.728-3.195-4.784-2.866-4.843-2.538-4.871-2.201-4.872-1.854L-4.873-.679C-4.873-.316-4.844 .034-4.782 .373-4.722 .712-4.63 1.032-4.508 1.334-4.391 1.623-4.245 1.891-4.071 2.134-3.898 2.376-3.694 2.587-3.457 2.768-3.229 2.943-2.969 3.079-2.677 3.175-2.387 3.271-2.065 3.319-1.715 3.32-1.359 3.32-1.033 3.271-.734 3.175-.437 3.076-.17 2.939 .067 2.766 .304 2.59 .51 2.384 .687 2.147 .861 1.912 1.008 1.652 1.128 1.371 1.258 1.069 1.356 .746 1.422 .401 1.487 .057 1.521-.301 1.521-.672L1.522-1.847C1.523-2.206 1.491-2.553 1.43-2.888" fill="#013540"/>
<path transform="matrix(1,0,0,-1,786.9387,409.0233)" d="M0 0-2.9 6.127V-.004L-4.387-.005-4.396 8.904-2.903 8.905-.021 2.803-.016 8.909 1.465 8.911 1.475 .002Z" fill="#013540"/>
<path transform="matrix(1,0,0,-1,793.2346,405.0213)" d="M0 0 .004-2.783 4.306-2.778 4.307-3.99-1.47-3.996-1.479 4.913 4.266 4.919 4.267 3.701-.004 3.696-.001 1.187 3.683 1.192 3.684 .005Z" fill="#013540"/>
<path transform="matrix(1,0,0,-1,805.2219,406.1581)" d="M0 0C-.087 .159-.207 .303-.362 .429-.525 .547-.719 .653-.94 .749-1.163 .845-1.411 .932-1.685 1.008-2.105 1.126-2.492 1.271-2.845 1.444-3.197 1.618-3.498 1.812-3.748 2.028-3.997 2.248-4.191 2.497-4.333 2.776-4.474 3.056-4.544 3.371-4.545 3.722-4.545 4.102-4.465 4.442-4.302 4.747-4.139 5.051-3.919 5.312-3.642 5.528-3.364 5.74-3.041 5.903-2.672 6.016-2.304 6.128-1.915 6.185-1.508 6.186-1.075 6.186-.672 6.12-.298 5.987 .075 5.855 .4 5.671 .678 5.435 .956 5.194 1.176 4.908 1.337 4.576 1.499 4.243 1.579 3.876 1.58 3.472L.124 3.47C.103 3.694 .055 3.899-.021 4.085-.096 4.271-.202 4.431-.337 4.565-.476 4.695-.644 4.799-.842 4.873-1.039 4.948-1.267 4.986-1.523 4.986-1.748 4.985-1.955 4.956-2.145 4.896-2.334 4.837-2.499 4.754-2.638 4.647-2.776 4.538-2.884 4.405-2.961 4.25-3.038 4.095-3.077 3.922-3.077 3.729-3.073 3.526-3.019 3.348-2.917 3.194-2.814 3.042-2.679 2.908-2.507 2.794-2.332 2.681-2.13 2.581-1.903 2.495-1.677 2.409-1.439 2.331-1.19 2.257-.876 2.168-.569 2.058-.27 1.925 .031 1.792 .308 1.633 .561 1.445 .875 1.209 1.128 .928 1.317 .599 1.507 .271 1.603-.107 1.603-.536 1.604-.932 1.521-1.28 1.355-1.582 1.191-1.884 .971-2.136 .693-2.336 .412-2.544 .086-2.701-.285-2.805-.656-2.909-1.048-2.962-1.46-2.962-1.896-2.963-2.327-2.895-2.751-2.759-3.175-2.622-3.545-2.425-3.859-2.163-4.149-1.92-4.379-1.632-4.549-1.302-4.718-.971-4.806-.592-4.81-.163L-3.341-.162C-3.321-.436-3.263-.674-3.166-.874-3.07-1.076-2.938-1.242-2.771-1.373-2.608-1.508-2.414-1.607-2.192-1.672-1.97-1.737-1.726-1.77-1.461-1.769-1.236-1.769-1.027-1.742-.834-1.689-.64-1.636-.473-1.556-.33-1.449-.191-1.348-.08-1.222 .004-1.07 .087-.92 .129-.746 .128-.55 .128-.342 .085-.158 0 0" fill="#013540"/>
</g>
<use data-text="L" xlink:href="#font_2_9" transform="matrix(12,0,0,-12,598.318,674.0224)"/>
<use data-text="o" xlink:href="#font_2_20" transform="matrix(12,0,0,-12,604.93,674.0224)"/>
<use data-text="g" xlink:href="#font_2_15" transform="matrix(12,0,0,-12,611.542,674.0224)"/>
<use data-text="o" xlink:href="#font_2_20" transform="matrix(12,0,0,-12,618.08206,674.0224)"/>
<use data-text=" " xlink:href="#font_2_1" transform="matrix(12,0,0,-12,624.69406,674.0224)"/>
<use data-text="H" xlink:href="#font_2_8" transform="matrix(12,0,0,-12,627.478,674.0224)"/>
<use data-text="o" xlink:href="#font_2_20" transform="matrix(12,0,0,-12,636.25,674.0224)"/>
<use data-text="r" xlink:href="#font_2_22" transform="matrix(12,0,0,-12,642.862,674.0224)"/>
<use data-text="i" xlink:href="#font_2_16" transform="matrix(12,0,0,-12,646.87,674.0224)"/>
<use data-text="z" xlink:href="#font_2_28" transform="matrix(12,0,0,-12,649.69,674.0224)"/>
<use data-text="o" xlink:href="#font_2_20" transform="matrix(12,0,0,-12,655.054,674.0224)"/>
<use data-text="n" xlink:href="#font_2_19" transform="matrix(12,0,0,-12,661.666,674.0224)"/>
<use data-text="t" xlink:href="#font_2_24" transform="matrix(12,0,0,-12,668.494,674.0224)"/>
<use data-text="a" xlink:href="#font_2_12" transform="matrix(12,0,0,-12,672.51406,674.0224)"/>
<use data-text="l" xlink:href="#font_2_17" transform="matrix(12,0,0,-12,678.994,674.0224)"/>
</g>
</g>
</svg>
