<?xml version="1.0" encoding="UTF-8"?>
<svg id="Calque_2" data-name="Calque 2" xmlns="http://www.w3.org/2000/svg" viewBox="0 0 129.1 42.3"><script xmlns=""/>
  <defs>
    <style>
      .cls-1 {
        isolation: isolate;
        opacity: .5;
      }

      .cls-1, .cls-2 {
        fill: #e03f0c;
        stroke-width: 0px;
      }
    </style>
  </defs>
  <g id="Calque_1-2" data-name="Calque 1">
    <polygon class="cls-2" points="111.8 8.5 106.5 8.5 113.8 26.5 116.5 20.1 111.8 8.5"/>
    <polyline class="cls-2" points="123.2 8.5 108.7 42.3 114.7 42.3 129.1 8.5 123.2 8.5"/>
    <polygon class="cls-1" points="48.7 32.7 55.1 32.7 59.8 25.8 56.6 21.1 48.7 32.7"/>
    <polygon class="cls-2" points="72.5 32.7 66.1 32.7 49.6 8.5 56.1 8.5 72.5 32.7"/>
    <polygon class="cls-1" points="71.7 8.5 65.2 8.5 61.5 14 64.7 18.7 71.7 8.5"/>
    <rect class="cls-2" x="99" width="4.9" height="32.7"/>
    <path class="cls-2" d="m37.5,27.9c-4,0-7.3-3.2-7.3-7.3s3.3-7.2,7.3-7.2c3.3,0,6.3,2.3,7.1,5.5h-12.5c-.2.6-.3,1.2-.3,1.7,0,.9.2,1.7.5,2.5h17.1c.2-.8.2-1.6.2-2.4,0-6.7-5.4-12.2-12.1-12.2s-12.2,5.4-12.2,12.1,5.4,12.2,12.1,12.2c5.1,0,9.7-3.2,11.5-8h-5.4c-1.3,1.9-3.6,3.1-6,3.1Z"/>
    <path class="cls-2" d="m90.9,8.5v2.4h0v9h0v1.3c-.3,4-3.8,7-7.8,6.6-4-.3-7-3.8-6.6-7.8s3.8-7,7.8-6.6c2,.2,3.8,1.1,5,2.6v-6.1c-5.9-3.1-13.2-.9-16.3,5s-.9,13.2,5,16.3c4.1,2.2,9.1,1.8,12.9-1v2.4h4.9V8.5h-4.9Z"/>
    <g>
      <polygon class="cls-2" points="5.1 8.5 5.1 .1 0 .1 0 32.7 5.1 32.7 5.1 8.5"/>
      <path class="cls-2" d="m18.5,13c-2.2-2.2-4.8-3.4-7.6-3.6-1.4-.1-2.8,0-4.1.4v5.6c1-.5,2.1-.8,3.2-.8,1.8,0,3.4.7,5,2.1,1.4,1.4,2.1,3.1,2.1,5v10.9h5.2v-10.9c-.2-3.4-1.4-6.3-3.8-8.7Z"/>
    </g>
  </g>
</svg>