<svg width="337" height="146" viewBox="0 0 337 146" fill="none" xmlns="http://www.w3.org/2000/svg">
<path d="M0.5 136.5H5.5L29 113L51.5 136.5H61L29 103.5L0.5 131.5V136.5Z" fill="#008FE1"/>
<path d="M0.5 104.5V114.5L29 86L79.5 136.5H89.5L61 107.5L110 59V49.5L83 75.5L32 25.5H22L51 54.5L0.5 104.5Z" fill="#008FE1"/>
<path d="M49 25.5H59L83 48.5L105 25.5H110V31.5L83 58.5L49 25.5Z" fill="#008FE1"/>
<path d="M110 75.5V86L87.5 107.5L110 130.5V136.5H104.5L77 107.5L110 75.5Z" fill="#008FE1"/>
<path d="M0.5 87.5L33 54.5L5 25.5H0.5V31.5L22.5 54.5L0.5 77V87.5Z" fill="#008FE1"/>
<path d="M0.5 136.5H5.5L29 113L51.5 136.5H61L29 103.5L0.5 131.5V136.5Z" stroke="#0090E1"/>
<path d="M0.5 104.5V114.5L29 86L79.5 136.5H89.5L61 107.5L110 59V49.5L83 75.5L32 25.5H22L51 54.5L0.5 104.5Z" stroke="#0090E1"/>
<path d="M49 25.5H59L83 48.5L105 25.5H110V31.5L83 58.5L49 25.5Z" stroke="#0090E1"/>
<path d="M110 75.5V86L87.5 107.5L110 130.5V136.5H104.5L77 107.5L110 75.5Z" stroke="#0090E1"/>
<path d="M0.5 87.5L33 54.5L5 25.5H0.5V31.5L22.5 54.5L0.5 77V87.5Z" stroke="#0090E1"/>
<path d="M56 60.5L77.5 80.5L56 101.5L35 80.5L56 60.5Z" fill="#808080" stroke="#808080"/>
<path d="M138.868 93.624C134.656 93.624 131.042 92.766 128.026 91.05C125.062 89.282 122.826 87.02 121.318 84.264C119.81 81.508 119.056 78.622 119.056 75.606V75.216H126.466V75.606C126.466 77.426 126.882 79.246 127.714 81.066C128.598 82.886 129.976 84.42 131.848 85.668C133.72 86.864 136.112 87.462 139.024 87.462C142.456 87.462 145.29 86.578 147.526 84.81C149.762 83.042 150.88 80.65 150.88 77.634C150.88 75.138 150.048 73.162 148.384 71.706C146.772 70.198 144.692 69.184 142.144 68.664L134.188 67.182C125.036 65.154 120.46 60.344 120.46 52.752C120.46 49.632 121.214 46.902 122.722 44.562C124.23 42.222 126.31 40.428 128.962 39.18C131.666 37.88 134.786 37.23 138.322 37.23C142.326 37.23 145.758 38.036 148.618 39.648C151.478 41.26 153.636 43.366 155.092 45.966C156.548 48.514 157.276 51.166 157.276 53.922V54.234H149.866V54C149.866 52.44 149.476 50.854 148.696 49.242C147.968 47.578 146.72 46.148 144.952 44.952C143.236 43.756 140.948 43.158 138.088 43.158C134.812 43.158 132.186 44.068 130.21 45.888C128.286 47.708 127.324 49.97 127.324 52.674C127.324 54.962 128.078 56.834 129.586 58.29C131.094 59.746 133.148 60.734 135.748 61.254L142.924 62.658C152.96 64.686 157.978 69.6 157.978 77.4C157.978 80.572 157.172 83.38 155.56 85.824C154 88.268 151.764 90.192 148.852 91.596C145.94 92.948 142.612 93.624 138.868 93.624ZM162.312 38.4H172.218L188.442 80.208H188.676L204.9 38.4H214.806V93H208.176V48.774H207.864L190.938 93H186.102L169.254 48.774H168.942V93H162.312V38.4ZM221.832 38.4H228.618V93H221.832V38.4ZM257.959 93.546C252.759 93.546 248.287 92.35 244.543 89.958C240.851 87.566 238.043 84.238 236.119 79.974C234.195 75.71 233.233 70.874 233.233 65.466C233.233 60.058 234.195 55.222 236.119 50.958C238.095 46.642 240.929 43.288 244.621 40.896C248.365 38.452 252.811 37.23 257.959 37.23C263.055 37.23 267.449 38.452 271.141 40.896C274.833 43.288 277.641 46.616 279.565 50.88C281.489 55.144 282.451 60.032 282.451 65.544C282.451 71.004 281.489 75.84 279.565 80.052C277.641 84.264 274.833 87.566 271.141 89.958C267.449 92.35 263.055 93.546 257.959 93.546ZM257.881 87.306C261.469 87.306 264.589 86.396 267.241 84.576C269.893 82.704 271.921 80.104 273.325 76.776C274.729 73.448 275.431 69.652 275.431 65.388C275.431 61.124 274.729 57.328 273.325 54C271.921 50.672 269.893 48.072 267.241 46.2C264.589 44.328 261.469 43.392 257.881 43.392C254.293 43.392 251.173 44.354 248.521 46.278C245.869 48.15 243.841 50.75 242.437 54.078C241.033 57.406 240.331 61.176 240.331 65.388C240.331 69.652 241.033 73.448 242.437 76.776C243.841 80.052 245.869 82.626 248.521 84.498C251.173 86.37 254.293 87.306 257.881 87.306Z" fill="#808080"/>
<path d="M119.017 115.117C118.298 115.117 117.678 114.974 117.158 114.688C116.647 114.393 116.257 114.016 115.988 113.557C115.728 113.089 115.598 112.604 115.598 112.101V112.023H117.327V112.101C117.327 112.344 117.388 112.591 117.509 112.842C117.63 113.085 117.817 113.293 118.068 113.466C118.328 113.631 118.653 113.713 119.043 113.713C119.511 113.713 119.897 113.592 120.2 113.349C120.503 113.106 120.655 112.781 120.655 112.374C120.655 112.027 120.534 111.75 120.291 111.542C120.057 111.334 119.762 111.195 119.407 111.126L118.224 110.892C117.661 110.771 117.119 110.532 116.599 110.177C116.088 109.813 115.832 109.206 115.832 108.357C115.832 107.82 115.962 107.352 116.222 106.953C116.491 106.554 116.855 106.251 117.314 106.043C117.782 105.826 118.319 105.718 118.926 105.718C119.611 105.718 120.196 105.852 120.681 106.121C121.175 106.39 121.548 106.736 121.799 107.161C122.05 107.586 122.176 108.032 122.176 108.5V108.552H120.447V108.513C120.447 108.305 120.395 108.088 120.291 107.863C120.196 107.638 120.027 107.447 119.784 107.291C119.55 107.135 119.242 107.057 118.861 107.057C118.419 107.057 118.068 107.178 117.808 107.421C117.548 107.664 117.418 107.971 117.418 108.344C117.418 108.682 117.535 108.951 117.769 109.15C118.003 109.349 118.306 109.488 118.679 109.566L119.81 109.8C120.477 109.939 121.058 110.203 121.552 110.593C122.055 110.974 122.306 111.555 122.306 112.335C122.306 112.881 122.163 113.366 121.877 113.791C121.6 114.207 121.21 114.532 120.707 114.766C120.213 115 119.65 115.117 119.017 115.117ZM127.705 115.104C126.821 115.104 126.067 114.9 125.443 114.493C124.819 114.086 124.346 113.531 124.026 112.829C123.705 112.118 123.545 111.321 123.545 110.437C123.545 109.553 123.705 108.756 124.026 108.045C124.346 107.326 124.819 106.758 125.443 106.342C126.075 105.926 126.829 105.718 127.705 105.718C128.571 105.718 129.317 105.926 129.941 106.342C130.565 106.758 131.037 107.321 131.358 108.032C131.678 108.743 131.839 109.544 131.839 110.437C131.839 111.321 131.678 112.118 131.358 112.829C131.037 113.531 130.565 114.086 129.941 114.493C129.317 114.9 128.571 115.104 127.705 115.104ZM127.705 113.674C128.476 113.674 129.078 113.371 129.512 112.764C129.945 112.157 130.162 111.373 130.162 110.411C130.162 109.796 130.066 109.241 129.876 108.747C129.685 108.253 129.403 107.863 129.031 107.577C128.667 107.282 128.225 107.135 127.705 107.135C127.185 107.135 126.738 107.282 126.366 107.577C125.993 107.863 125.707 108.257 125.508 108.76C125.317 109.254 125.222 109.809 125.222 110.424C125.222 111.039 125.317 111.594 125.508 112.088C125.698 112.573 125.98 112.959 126.353 113.245C126.725 113.531 127.176 113.674 127.705 113.674ZM137.201 115.104C136.343 115.104 135.602 114.896 134.978 114.48C134.354 114.055 133.877 113.488 133.548 112.777C133.227 112.066 133.067 111.278 133.067 110.411C133.067 109.536 133.227 108.743 133.548 108.032C133.877 107.321 134.354 106.758 134.978 106.342C135.602 105.926 136.343 105.718 137.201 105.718C138.249 105.718 139.112 106.017 139.788 106.615C140.464 107.213 140.906 108.002 141.114 108.981H139.58C139.441 108.426 139.164 107.976 138.748 107.629C138.332 107.274 137.825 107.096 137.227 107.096C136.403 107.096 135.779 107.399 135.355 108.006C134.93 108.604 134.718 109.401 134.718 110.398C134.718 111.395 134.93 112.196 135.355 112.803C135.788 113.41 136.412 113.713 137.227 113.713C137.799 113.713 138.284 113.553 138.683 113.232C139.081 112.903 139.359 112.487 139.515 111.984H141.049C140.832 112.911 140.39 113.665 139.723 114.246C139.055 114.818 138.215 115.104 137.201 115.104ZM142.506 105.9H144.092V115H142.506V105.9ZM147.493 107.291V109.748H151.198V110.996H147.493V113.609H151.796V115H145.92V105.9H151.796V107.291H147.493ZM153.296 105.887H156.767C157.573 105.887 158.283 106.069 158.899 106.433C159.514 106.797 159.991 107.321 160.329 108.006C160.667 108.691 160.836 109.501 160.836 110.437C160.836 111.382 160.662 112.196 160.316 112.881C159.978 113.566 159.501 114.09 158.886 114.454C158.27 114.809 157.555 114.987 156.741 114.987H153.296V105.887ZM156.468 113.57C157.291 113.57 157.945 113.319 158.431 112.816C158.916 112.305 159.159 111.507 159.159 110.424C159.159 109.349 158.916 108.561 158.431 108.058C157.945 107.547 157.291 107.291 156.468 107.291H154.83V113.57H156.468ZM166.774 112.621H163.459L162.653 115H161.054L164.382 105.9H165.864L169.192 115H167.593L166.774 112.621ZM166.358 111.399L165.136 107.863H165.071L163.875 111.399H166.358ZM170.32 105.887H173.791C174.597 105.887 175.308 106.069 175.923 106.433C176.538 106.797 177.015 107.321 177.353 108.006C177.691 108.691 177.86 109.501 177.86 110.437C177.86 111.382 177.687 112.196 177.34 112.881C177.002 113.566 176.525 114.09 175.91 114.454C175.295 114.809 174.58 114.987 173.765 114.987H170.32V105.887ZM173.492 113.57C174.315 113.57 174.97 113.319 175.455 112.816C175.94 112.305 176.183 111.507 176.183 110.424C176.183 109.349 175.94 108.561 175.455 108.058C174.97 107.547 174.315 107.291 173.492 107.291H171.854V113.57H173.492ZM182.177 105.9H184.517L186.753 111.958H186.792L189.041 105.9H191.381V115H189.834V108.188H189.769L187.299 115H186.259L183.789 108.188H183.724V115H182.177V105.9ZM194.707 107.291V109.748H198.412V110.996H194.707V113.609H199.01V115H193.134V105.9H199.01V107.291H194.707ZM203.083 110.45L200.106 105.9H201.835L204.019 109.345H204.097L206.281 105.9H208.023L205.033 110.45L208.023 115H206.281L204.097 111.555H204.019L201.835 115H200.093L203.083 110.45ZM209.284 105.9H210.87V115H209.284V105.9ZM216.496 115.104C215.638 115.104 214.897 114.896 214.273 114.48C213.649 114.055 213.172 113.488 212.843 112.777C212.522 112.066 212.362 111.278 212.362 110.411C212.362 109.536 212.522 108.743 212.843 108.032C213.172 107.321 213.649 106.758 214.273 106.342C214.897 105.926 215.638 105.718 216.496 105.718C217.544 105.718 218.407 106.017 219.083 106.615C219.759 107.213 220.201 108.002 220.409 108.981H218.875C218.736 108.426 218.459 107.976 218.043 107.629C217.627 107.274 217.12 107.096 216.522 107.096C215.698 107.096 215.074 107.399 214.65 108.006C214.225 108.604 214.013 109.401 214.013 110.398C214.013 111.395 214.225 112.196 214.65 112.803C215.083 113.41 215.707 113.713 216.522 113.713C217.094 113.713 217.579 113.553 217.978 113.232C218.376 112.903 218.654 112.487 218.81 111.984H220.344C220.127 112.911 219.685 113.665 219.018 114.246C218.35 114.818 217.51 115.104 216.496 115.104ZM226.341 112.621H223.026L222.22 115H220.621L223.949 105.9H225.431L228.759 115H227.16L226.341 112.621ZM225.925 111.399L224.703 107.863H224.638L223.442 111.399H225.925ZM229.886 105.9H231.706L235.801 112.543H235.84V105.9H237.4V115.013H235.58L231.498 108.513H231.446V115.013H229.886V105.9ZM244.292 112.621H240.977L240.171 115H238.572L241.9 105.9H243.382L246.71 115H245.111L244.292 112.621ZM243.876 111.399L242.654 107.863H242.589L241.393 111.399H243.876ZM250.834 105.887H254.305C255.111 105.887 255.821 106.069 256.437 106.433C257.052 106.797 257.529 107.321 257.867 108.006C258.205 108.691 258.374 109.501 258.374 110.437C258.374 111.382 258.2 112.196 257.854 112.881C257.516 113.566 257.039 114.09 256.424 114.454C255.808 114.809 255.093 114.987 254.279 114.987H250.834V105.887ZM254.006 113.57C254.829 113.57 255.483 113.319 255.969 112.816C256.454 112.305 256.697 111.507 256.697 110.424C256.697 109.349 256.454 108.561 255.969 108.058C255.483 107.547 254.829 107.291 254.006 107.291H252.368V113.57H254.006ZM261.281 107.291V109.748H264.986V110.996H261.281V113.609H265.584V115H259.708V105.9H265.584V107.291H261.281ZM115.897 124.9H117.483V134H115.897V124.9ZM119.298 124.9H121.118L125.213 131.543H125.252V124.9H126.812V134.013H124.992L120.91 127.513H120.858V134.013H119.298V124.9ZM127.788 124.9H129.361L131.818 132.349H131.896L134.34 124.9H135.926L132.884 134.013H130.817L127.788 124.9ZM138.695 126.291V128.748H142.4V129.996H138.695V132.609H142.998V134H137.122V124.9H142.998V126.291H138.695ZM147.696 134.117C146.976 134.117 146.357 133.974 145.837 133.688C145.325 133.393 144.935 133.016 144.667 132.557C144.407 132.089 144.277 131.604 144.277 131.101V131.023H146.006V131.101C146.006 131.344 146.066 131.591 146.188 131.842C146.309 132.085 146.495 132.293 146.747 132.466C147.007 132.631 147.332 132.713 147.722 132.713C148.19 132.713 148.575 132.592 148.879 132.349C149.182 132.106 149.334 131.781 149.334 131.374C149.334 131.027 149.212 130.75 148.97 130.542C148.736 130.334 148.441 130.195 148.086 130.126L146.903 129.892C146.339 129.771 145.798 129.532 145.278 129.177C144.766 128.813 144.511 128.206 144.511 127.357C144.511 126.82 144.641 126.352 144.901 125.953C145.169 125.554 145.533 125.251 145.993 125.043C146.461 124.826 146.998 124.718 147.605 124.718C148.289 124.718 148.874 124.852 149.36 125.121C149.854 125.39 150.226 125.736 150.478 126.161C150.729 126.586 150.855 127.032 150.855 127.5V127.552H149.126V127.513C149.126 127.305 149.074 127.088 148.97 126.863C148.874 126.638 148.705 126.447 148.463 126.291C148.229 126.135 147.921 126.057 147.54 126.057C147.098 126.057 146.747 126.178 146.487 126.421C146.227 126.664 146.097 126.971 146.097 127.344C146.097 127.682 146.214 127.951 146.448 128.15C146.682 128.349 146.985 128.488 147.358 128.566L148.489 128.8C149.156 128.939 149.737 129.203 150.231 129.593C150.733 129.974 150.985 130.555 150.985 131.335C150.985 131.881 150.842 132.366 150.556 132.791C150.278 133.207 149.888 133.532 149.386 133.766C148.892 134 148.328 134.117 147.696 134.117ZM158.548 126.291H156.013V134H154.44V126.291H151.905V124.9H158.548V126.291ZM159.912 124.9H161.498V134H159.912V124.9ZM166.942 134.104C166.075 134.104 165.343 133.883 164.745 133.441C164.155 132.99 163.718 132.41 163.432 131.699C163.146 130.988 163.003 130.234 163.003 129.437C163.003 128.622 163.15 127.855 163.445 127.136C163.739 126.417 164.194 125.836 164.81 125.394C165.425 124.943 166.188 124.718 167.098 124.718C168.12 124.718 168.952 125 169.594 125.563C170.244 126.126 170.699 126.846 170.959 127.721H169.295C169.147 127.218 168.892 126.824 168.528 126.538C168.164 126.252 167.691 126.109 167.111 126.109C166.313 126.109 165.694 126.412 165.252 127.019C164.818 127.626 164.602 128.44 164.602 129.463C164.602 130.52 164.827 131.344 165.278 131.933C165.737 132.522 166.37 132.817 167.176 132.817C167.886 132.817 168.437 132.605 168.827 132.18C169.225 131.747 169.433 131.209 169.451 130.568V130.308H167.332V129.151H170.972V134H169.776V132.596H169.672C169.516 132.908 169.238 133.237 168.84 133.584C168.441 133.931 167.808 134.104 166.942 134.104ZM177.768 131.621H174.453L173.647 134H172.048L175.376 124.9H176.858L180.186 134H178.587L177.768 131.621ZM177.352 130.399L176.13 126.863H176.065L174.869 130.399H177.352ZM184.884 134.104C184.026 134.104 183.285 133.896 182.661 133.48C182.037 133.055 181.561 132.488 181.231 131.777C180.911 131.066 180.75 130.278 180.75 129.411C180.75 128.536 180.911 127.743 181.231 127.032C181.561 126.321 182.037 125.758 182.661 125.342C183.285 124.926 184.026 124.718 184.884 124.718C185.933 124.718 186.795 125.017 187.471 125.615C188.147 126.213 188.589 127.002 188.797 127.981H187.263C187.125 127.426 186.847 126.976 186.431 126.629C186.015 126.274 185.508 126.096 184.91 126.096C184.087 126.096 183.463 126.399 183.038 127.006C182.614 127.604 182.401 128.401 182.401 129.398C182.401 130.395 182.614 131.196 183.038 131.803C183.472 132.41 184.096 132.713 184.91 132.713C185.482 132.713 185.968 132.553 186.366 132.232C186.765 131.903 187.042 131.487 187.198 130.984H188.732C188.516 131.911 188.074 132.665 187.406 133.246C186.739 133.818 185.898 134.104 184.884 134.104ZM190.19 124.9H191.776V134H190.19V124.9ZM197.402 134.104C196.518 134.104 195.764 133.9 195.14 133.493C194.516 133.086 194.044 132.531 193.723 131.829C193.402 131.118 193.242 130.321 193.242 129.437C193.242 128.553 193.402 127.756 193.723 127.045C194.044 126.326 194.516 125.758 195.14 125.342C195.773 124.926 196.527 124.718 197.402 124.718C198.269 124.718 199.014 124.926 199.638 125.342C200.262 125.758 200.734 126.321 201.055 127.032C201.376 127.743 201.536 128.544 201.536 129.437C201.536 130.321 201.376 131.118 201.055 131.829C200.734 132.531 200.262 133.086 199.638 133.493C199.014 133.9 198.269 134.104 197.402 134.104ZM197.402 132.674C198.173 132.674 198.776 132.371 199.209 131.764C199.642 131.157 199.859 130.373 199.859 129.411C199.859 128.796 199.764 128.241 199.573 127.747C199.382 127.253 199.101 126.863 198.728 126.577C198.364 126.282 197.922 126.135 197.402 126.135C196.882 126.135 196.436 126.282 196.063 126.577C195.69 126.863 195.404 127.257 195.205 127.76C195.014 128.254 194.919 128.809 194.919 129.424C194.919 130.039 195.014 130.594 195.205 131.088C195.396 131.573 195.677 131.959 196.05 132.245C196.423 132.531 196.873 132.674 197.402 132.674ZM196.804 123.938L198.104 121.468H199.69L198.052 123.951L196.804 123.938ZM202.96 124.9H204.78L208.875 131.543H208.914V124.9H210.474V134.013H208.654L204.572 127.513H204.52V134.013H202.96V124.9ZM215.109 124.887H218.58C219.386 124.887 220.097 125.069 220.712 125.433C221.327 125.797 221.804 126.321 222.142 127.006C222.48 127.691 222.649 128.501 222.649 129.437C222.649 130.382 222.476 131.196 222.129 131.881C221.791 132.566 221.314 133.09 220.699 133.454C220.084 133.809 219.369 133.987 218.554 133.987H215.109V124.887ZM218.281 132.57C219.104 132.57 219.759 132.319 220.244 131.816C220.729 131.305 220.972 130.507 220.972 129.424C220.972 128.349 220.729 127.561 220.244 127.058C219.759 126.547 219.104 126.291 218.281 126.291H216.643V132.57H218.281ZM225.556 126.291V128.748H229.261V129.996H225.556V132.609H229.859V134H223.983V124.9H229.859V126.291H225.556ZM238.268 134.104C237.384 134.104 236.63 133.9 236.006 133.493C235.382 133.086 234.91 132.531 234.589 131.829C234.268 131.118 234.108 130.321 234.108 129.437C234.108 128.553 234.268 127.756 234.589 127.045C234.91 126.326 235.382 125.758 236.006 125.342C236.639 124.926 237.393 124.718 238.268 124.718C239.135 124.718 239.88 124.926 240.504 125.342C241.128 125.758 241.6 126.321 241.921 127.032C242.242 127.743 242.402 128.544 242.402 129.437C242.402 130.321 242.242 131.118 241.921 131.829C241.6 132.531 241.128 133.086 240.504 133.493C239.88 133.9 239.135 134.104 238.268 134.104ZM238.268 132.674C239.039 132.674 239.642 132.371 240.075 131.764C240.508 131.157 240.725 130.373 240.725 129.411C240.725 128.796 240.63 128.241 240.439 127.747C240.248 127.253 239.967 126.863 239.594 126.577C239.23 126.282 238.788 126.135 238.268 126.135C237.748 126.135 237.302 126.282 236.929 126.577C236.556 126.863 236.27 127.257 236.071 127.76C235.88 128.254 235.785 128.809 235.785 129.424C235.785 130.039 235.88 130.594 236.071 131.088C236.262 131.573 236.543 131.959 236.916 132.245C237.289 132.531 237.739 132.674 238.268 132.674ZM247.102 124.9C247.83 124.9 248.437 125.047 248.922 125.342C249.407 125.637 249.763 126.018 249.988 126.486C250.222 126.954 250.339 127.452 250.339 127.981C250.339 128.51 250.226 129.008 250.001 129.476C249.776 129.935 249.42 130.308 248.935 130.594C248.45 130.88 247.839 131.023 247.102 131.023H245.373V134H243.826V124.9H247.102ZM246.868 129.71C247.414 129.71 247.873 129.58 248.246 129.32C248.619 129.051 248.805 128.605 248.805 127.981C248.805 127.366 248.619 126.932 248.246 126.681C247.882 126.421 247.423 126.291 246.868 126.291H245.373V129.71H246.868ZM253.194 126.291V128.748H256.899V129.996H253.194V132.609H257.497V134H251.621V124.9H257.497V126.291H253.194ZM261.909 130.594H260.57V134H258.997V124.9H262.273C263.001 124.9 263.607 125.039 264.093 125.316C264.578 125.585 264.933 125.94 265.159 126.382C265.393 126.815 265.51 127.279 265.51 127.773C265.51 128.38 265.341 128.93 265.003 129.424C264.665 129.909 264.158 130.247 263.482 130.438L265.64 134H263.976L261.909 130.594ZM260.57 129.294H262.039C262.585 129.294 263.044 129.177 263.417 128.943C263.789 128.709 263.976 128.319 263.976 127.773C263.976 127.227 263.789 126.846 263.417 126.629C263.053 126.404 262.593 126.291 262.039 126.291H260.57V129.294ZM271.574 131.621H268.259L267.453 134H265.854L269.182 124.9H270.664L273.992 134H272.393L271.574 131.621ZM271.158 130.399L269.936 126.863H269.871L268.675 130.399H271.158ZM278.69 134.104C277.832 134.104 277.091 133.896 276.467 133.48C275.843 133.055 275.366 132.488 275.037 131.777C274.716 131.066 274.556 130.278 274.556 129.411C274.556 128.536 274.716 127.743 275.037 127.032C275.366 126.321 275.843 125.758 276.467 125.342C277.091 124.926 277.832 124.718 278.69 124.718C279.739 124.718 280.601 125.017 281.277 125.615C281.953 126.213 282.395 127.002 282.603 127.981H281.069C280.93 127.426 280.653 126.976 280.237 126.629C279.821 126.274 279.314 126.096 278.716 126.096C277.893 126.096 277.269 126.399 276.844 127.006C276.419 127.604 276.207 128.401 276.207 129.398C276.207 130.395 276.419 131.196 276.844 131.803C277.277 132.41 277.901 132.713 278.716 132.713C279.288 132.713 279.773 132.553 280.172 132.232C280.571 131.903 280.848 131.487 281.004 130.984H282.538C282.321 131.911 281.879 132.665 281.212 133.246C280.545 133.818 279.704 134.104 278.69 134.104ZM283.996 124.9H285.582V134H283.996V124.9ZM291.208 134.104C290.324 134.104 289.57 133.9 288.946 133.493C288.322 133.086 287.849 132.531 287.529 131.829C287.208 131.118 287.048 130.321 287.048 129.437C287.048 128.553 287.208 127.756 287.529 127.045C287.849 126.326 288.322 125.758 288.946 125.342C289.578 124.926 290.332 124.718 291.208 124.718C292.074 124.718 292.82 124.926 293.444 125.342C294.068 125.758 294.54 126.321 294.861 127.032C295.181 127.743 295.342 128.544 295.342 129.437C295.342 130.321 295.181 131.118 294.861 131.829C294.54 132.531 294.068 133.086 293.444 133.493C292.82 133.9 292.074 134.104 291.208 134.104ZM291.208 132.674C291.979 132.674 292.581 132.371 293.015 131.764C293.448 131.157 293.665 130.373 293.665 129.411C293.665 128.796 293.569 128.241 293.379 127.747C293.188 127.253 292.906 126.863 292.534 126.577C292.17 126.282 291.728 126.135 291.208 126.135C290.688 126.135 290.241 126.282 289.869 126.577C289.496 126.863 289.21 127.257 289.011 127.76C288.82 128.254 288.725 128.809 288.725 129.424C288.725 130.039 288.82 130.594 289.011 131.088C289.201 131.573 289.483 131.959 289.856 132.245C290.228 132.531 290.679 132.674 291.208 132.674ZM296.765 124.9H298.585L302.68 131.543H302.719V124.9H304.279V134.013H302.459L298.377 127.513H298.325V134.013H296.765V124.9ZM307.606 126.291V128.748H311.311V129.996H307.606V132.609H311.909V134H306.033V124.9H311.909V126.291H307.606ZM316.607 134.117C315.888 134.117 315.268 133.974 314.748 133.688C314.237 133.393 313.847 133.016 313.578 132.557C313.318 132.089 313.188 131.604 313.188 131.101V131.023H314.917V131.101C314.917 131.344 314.978 131.591 315.099 131.842C315.22 132.085 315.407 132.293 315.658 132.466C315.918 132.631 316.243 132.713 316.633 132.713C317.101 132.713 317.487 132.592 317.79 132.349C318.093 132.106 318.245 131.781 318.245 131.374C318.245 131.027 318.124 130.75 317.881 130.542C317.647 130.334 317.352 130.195 316.997 130.126L315.814 129.892C315.251 129.771 314.709 129.532 314.189 129.177C313.678 128.813 313.422 128.206 313.422 127.357C313.422 126.82 313.552 126.352 313.812 125.953C314.081 125.554 314.445 125.251 314.904 125.043C315.372 124.826 315.909 124.718 316.516 124.718C317.201 124.718 317.786 124.852 318.271 125.121C318.765 125.39 319.138 125.736 319.389 126.161C319.64 126.586 319.766 127.032 319.766 127.5V127.552H318.037V127.513C318.037 127.305 317.985 127.088 317.881 126.863C317.786 126.638 317.617 126.447 317.374 126.291C317.14 126.135 316.832 126.057 316.451 126.057C316.009 126.057 315.658 126.178 315.398 126.421C315.138 126.664 315.008 126.971 315.008 127.344C315.008 127.682 315.125 127.951 315.359 128.15C315.593 128.349 315.896 128.488 316.269 128.566L317.4 128.8C318.067 128.939 318.648 129.203 319.142 129.593C319.645 129.974 319.896 130.555 319.896 131.335C319.896 131.881 319.753 132.366 319.467 132.791C319.19 133.207 318.8 133.532 318.297 133.766C317.803 134 317.24 134.117 316.607 134.117Z" fill="#808080"/>
</svg>
